<?xml version="1.0" encoding="UTF-8"?>
<svg id="Layer_2" data-name="Layer 2" xmlns="http://www.w3.org/2000/svg" xmlns:xlink="http://www.w3.org/1999/xlink" viewBox="0 0 822.05 467.72">
  <defs>
    <style>
      .cls-1 {
        fill: none;
      }

      .cls-2 {
        fill: url(#radial-gradient-4);
      }

      .cls-2, .cls-3, .cls-4 {
        opacity: .4;
      }

      .cls-3 {
        fill: url(#radial-gradient-2);
      }

      .cls-4 {
        fill: url(#radial-gradient-3);
      }

      .cls-5 {
        fill: url(#radial-gradient);
      }

      .cls-6 {
        fill: url(#linear-gradient-2);
      }

      .cls-6, .cls-7, .cls-8 {
        opacity: .1;
      }

      .cls-7 {
        fill: url(#linear-gradient-3);
      }

      .cls-8 {
        fill: url(#linear-gradient-4);
      }

      .cls-9 {
        fill: url(#linear-gradient);
        opacity: .3;
      }

      .cls-10 {
        clip-path: url(#clippath);
      }
    </style>
    <clipPath id="clippath">
      <rect class="cls-1" width="822.05" height="467.72"/>
    </clipPath>
    <radialGradient id="radial-gradient" cx="-16.46" cy="223.43" fx="-16.46" fy="223.43" r="429.81" gradientUnits="userSpaceOnUse">
      <stop offset="0" stop-color="#25283b" stop-opacity=".8"/>
      <stop offset="1" stop-color="#121630"/>
    </radialGradient>
    <linearGradient id="linear-gradient" x1="35.36" y1="329.22" x2="341.79" y2="329.22" gradientUnits="userSpaceOnUse">
      <stop offset="0" stop-color="#2baae2"/>
      <stop offset=".04" stop-color="#33a3e1"/>
      <stop offset=".23" stop-color="#5885dd"/>
      <stop offset=".43" stop-color="#756dda"/>
      <stop offset=".63" stop-color="#8a5cd7"/>
      <stop offset=".82" stop-color="#9652d6"/>
      <stop offset="1" stop-color="#9b4fd6"/>
    </linearGradient>
    <radialGradient id="radial-gradient-2" cx="361.34" cy="285.77" fx="361.34" fy="285.77" r="197.69" xlink:href="#radial-gradient"/>
    <linearGradient id="linear-gradient-2" x1="373.07" y1="320.21" x2="516.9" y2="320.21" xlink:href="#linear-gradient"/>
    <radialGradient id="radial-gradient-3" cx="71.03" cy="-12.52" fx="71.03" fy="-12.52" r="197.69" xlink:href="#radial-gradient"/>
    <linearGradient id="linear-gradient-3" x1="82.76" y1="21.92" x2="226.59" y2="21.92" xlink:href="#linear-gradient"/>
    <radialGradient id="radial-gradient-4" cx="546.57" cy="86.68" fx="546.57" fy="86.68" r="111.99" xlink:href="#radial-gradient"/>
    <linearGradient id="linear-gradient-4" x1="553.21" y1="106.19" x2="634.69" y2="106.19" xlink:href="#linear-gradient"/>
  </defs>
  <g id="Layer_1-2" data-name="Layer 1">
    <g class="cls-10">
      <g>
        <polygon class="cls-5" points="253.01 407.13 273.79 494.81 51.83 547.41 -.77 325.45 177.76 283.14 202.88 242.42 -41.49 300.34 26.71 588.13 314.51 519.93 278.13 366.42 253.01 407.13"/>
        <polygon class="cls-9" points="170.21 486.94 35.36 403.76 72.66 343.3 147.04 389.18 281.32 171.49 341.79 208.79 170.21 486.94"/>
      </g>
      <g>
        <polygon class="cls-3" points="487.02 337.67 504.1 409.72 369.01 441.73 337 306.65 451.7 279.47 439.91 298.58 356.11 318.44 380.8 422.62 484.98 397.93 475.23 356.78 487.02 337.67"/>
        <polygon class="cls-6" points="516.9 263.68 488.52 246.17 425.49 348.35 390.58 326.82 373.07 355.2 436.37 394.24 516.9 263.68"/>
      </g>
      <g>
        <polygon class="cls-4" points="196.71 39.38 213.79 111.43 78.7 143.44 46.69 8.36 161.39 -18.82 149.6 .29 65.8 20.15 90.49 124.33 194.67 99.64 184.92 58.49 196.71 39.38"/>
        <polygon class="cls-7" points="226.59 -34.61 198.21 -52.12 135.18 50.06 100.27 28.53 82.76 56.91 146.06 95.95 226.59 -34.61"/>
      </g>
      <g>
        <polygon class="cls-2" points="617.77 116.08 627.44 156.9 550.91 175.04 532.77 98.51 597.76 83.11 591.08 93.94 543.6 105.19 557.59 164.21 616.61 150.22 611.09 126.91 617.77 116.08"/>
        <polygon class="cls-8" points="634.69 74.16 618.61 64.25 582.91 122.13 563.13 109.93 553.21 126.01 589.07 148.13 634.69 74.16"/>
      </g>
    </g>
  </g>
</svg>