<svg width="300" height="300" viewBox="0 0 300 300" fill="none" xmlns="http://www.w3.org/2000/svg">
<path d="M20.6909 248.274V279.309H51.7257V248.274H20.6909ZM0 300H72.4132V227.587H0V300ZM10.3438 289.656V237.931H62.066V289.656H10.3438ZM279.309 51.7257V20.6909H248.274V51.7257H279.309ZM300 0H227.587V72.4132H300V0ZM289.653 10.3438V62.066H237.927V10.3438H289.653ZM51.7223 20.6909H20.6909V51.7257H51.7257V20.6909H51.7223ZM0 0V72.4132H72.4132V0H0ZM10.3438 10.3438H62.066V62.066H10.3438V10.3438Z" fill="url(#paint0_linear_10854_871)"/>
<path d="M88.0157 8.89823C90.2964 8.89823 92.1476 7.04319 92.1476 4.75771C92.1476 2.47222 90.2964 0.617188 88.0157 0.617188C85.7349 0.617188 83.8837 2.47222 83.8837 4.75771C83.8837 7.04319 85.7349 8.89823 88.0157 8.89823ZM98.3456 8.89823C100.626 8.89823 102.477 7.04319 102.477 4.75771C102.477 2.47222 100.626 0.617188 98.3456 0.617188C96.0648 0.617188 94.2136 2.47222 94.2136 4.75771C94.2136 7.04319 96.0648 8.89823 98.3456 8.89823ZM160.332 8.89823C162.612 8.89823 164.464 7.04319 164.464 4.75771C164.464 2.47222 162.612 0.617188 160.332 0.617188C158.051 0.617188 156.2 2.47222 156.2 4.75771C156.2 7.04319 158.051 8.89823 160.332 8.89823ZM170.661 8.89823C172.942 8.89823 174.793 7.04319 174.793 4.75771C174.793 2.47222 172.942 0.617188 170.661 0.617188C168.381 0.617188 166.529 2.47222 166.529 4.75771C166.529 7.04319 168.381 8.89823 170.661 8.89823ZM201.654 8.89823C203.935 8.89823 205.786 7.04319 205.786 4.75771C205.786 2.47222 203.935 0.617188 201.654 0.617188C199.374 0.617188 197.522 2.47222 197.522 4.75771C197.522 7.04319 199.374 8.89823 201.654 8.89823ZM211.984 8.89823C214.265 8.89823 216.116 7.04319 216.116 4.75771C216.116 2.47222 214.265 0.617188 211.984 0.617188C209.704 0.617188 207.852 2.47222 207.852 4.75771C207.852 7.04319 209.704 8.89823 211.984 8.89823ZM88.0157 19.2529C90.2964 19.2529 92.1476 17.3979 92.1476 15.1124C92.1476 12.8269 90.2964 10.9719 88.0157 10.9719C85.7349 10.9719 83.8837 12.8269 83.8837 15.1124C83.8837 17.3979 85.7349 19.2529 88.0157 19.2529ZM98.3456 19.2529C100.626 19.2529 102.477 17.3979 102.477 15.1124C102.477 12.8269 100.626 10.9719 98.3456 10.9719C96.0648 10.9719 94.2136 12.8269 94.2136 15.1124C94.2136 17.3979 96.0648 19.2529 98.3456 19.2529ZM129.339 19.2529C131.619 19.2529 133.471 17.3979 133.471 15.1124C133.471 12.8269 131.619 10.9719 129.339 10.9719C127.058 10.9719 125.207 12.8269 125.207 15.1124C125.207 17.3979 127.058 19.2529 129.339 19.2529ZM139.668 19.2529C141.949 19.2529 143.8 17.3979 143.8 15.1124C143.8 12.8269 141.949 10.9719 139.668 10.9719C137.388 10.9719 135.536 12.8269 135.536 15.1124C135.536 17.3979 137.388 19.2529 139.668 19.2529ZM149.998 19.2529C152.279 19.2529 154.13 17.3979 154.13 15.1124C154.13 12.8269 152.279 10.9719 149.998 10.9719C147.718 10.9719 145.866 12.8269 145.866 15.1124C145.866 17.3979 147.718 19.2529 149.998 19.2529ZM160.332 19.2529C162.612 19.2529 164.464 17.3979 164.464 15.1124C164.464 12.8269 162.612 10.9719 160.332 10.9719C158.051 10.9719 156.2 12.8269 156.2 15.1124C156.2 17.3979 158.051 19.2529 160.332 19.2529ZM170.661 19.2529C172.942 19.2529 174.793 17.3979 174.793 15.1124C174.793 12.8269 172.942 10.9719 170.661 10.9719C168.381 10.9719 166.529 12.8269 166.529 15.1124C166.529 17.3979 168.381 19.2529 170.661 19.2529ZM211.984 19.2529C214.265 19.2529 216.116 17.3979 216.116 15.1124C216.116 12.8269 214.265 10.9719 211.984 10.9719C209.704 10.9719 207.852 12.8269 207.852 15.1124C207.852 17.3979 209.704 19.2529 211.984 19.2529ZM98.3456 29.6042C100.626 29.6042 102.477 27.7492 102.477 25.4637C102.477 23.1782 100.626 21.3232 98.3456 21.3232C96.0648 21.3232 94.2136 23.1782 94.2136 25.4637C94.2136 27.7492 96.0648 29.6042 98.3456 29.6042ZM119.005 29.6042C121.286 29.6042 123.137 27.7492 123.137 25.4637C123.137 23.1782 121.286 21.3232 119.005 21.3232C116.725 21.3232 114.873 23.1782 114.873 25.4637C114.873 27.7492 116.725 29.6042 119.005 29.6042ZM139.668 29.6042C141.949 29.6042 143.8 27.7492 143.8 25.4637C143.8 23.1782 141.949 21.3232 139.668 21.3232C137.388 21.3232 135.536 23.1782 135.536 25.4637C135.536 27.7492 137.388 29.6042 139.668 29.6042ZM129.339 39.9555C131.619 39.9555 133.471 38.1005 133.471 35.815C133.471 33.5295 131.619 31.6745 129.339 31.6745C127.058 31.6745 125.207 33.5295 125.207 35.815C125.207 38.1005 127.058 39.9555 129.339 39.9555ZM149.998 39.9555C152.279 39.9555 154.13 38.1005 154.13 35.815C154.13 33.5295 152.279 31.6745 149.998 31.6745C147.718 31.6745 145.866 33.5295 145.866 35.815C145.866 38.1005 147.718 39.9555 149.998 39.9555ZM160.332 39.9555C162.612 39.9555 164.464 38.1005 164.464 35.815C164.464 33.5295 162.612 31.6745 160.332 31.6745C158.051 31.6745 156.2 33.5295 156.2 35.815C156.2 38.1005 158.051 39.9555 160.332 39.9555ZM180.991 39.9555C183.272 39.9555 185.123 38.1005 185.123 35.815C185.123 33.5295 183.272 31.6745 180.991 31.6745C178.711 31.6745 176.859 33.5295 176.859 35.815C176.859 38.1005 178.711 39.9555 180.991 39.9555ZM211.984 39.9555C214.265 39.9555 216.116 38.1005 216.116 35.815C216.116 33.5295 214.265 31.6745 211.984 31.6745C209.704 31.6745 207.852 33.5295 207.852 35.815C207.852 38.1005 209.704 39.9555 211.984 39.9555ZM108.675 50.3068C110.956 50.3068 112.807 48.4518 112.807 46.1663C112.807 43.8808 110.956 42.0258 108.675 42.0258C106.395 42.0258 104.543 43.8808 104.543 46.1663C104.543 48.4518 106.395 50.3068 108.675 50.3068ZM129.339 50.3068C131.619 50.3068 133.471 48.4518 133.471 46.1663C133.471 43.8808 131.619 42.0258 129.339 42.0258C127.058 42.0258 125.207 43.8808 125.207 46.1663C125.207 48.4518 127.058 50.3068 129.339 50.3068ZM139.668 50.3068C141.949 50.3068 143.8 48.4518 143.8 46.1663C143.8 43.8808 141.949 42.0258 139.668 42.0258C137.388 42.0258 135.536 43.8808 135.536 46.1663C135.536 48.4518 137.388 50.3068 139.668 50.3068ZM149.998 50.3068C152.279 50.3068 154.13 48.4518 154.13 46.1663C154.13 43.8808 152.279 42.0258 149.998 42.0258C147.718 42.0258 145.866 43.8808 145.866 46.1663C145.866 48.4518 147.718 50.3068 149.998 50.3068ZM170.661 50.3068C172.942 50.3068 174.793 48.4518 174.793 46.1663C174.793 43.8808 172.942 42.0258 170.661 42.0258C168.381 42.0258 166.529 43.8808 166.529 46.1663C166.529 48.4518 168.381 50.3068 170.661 50.3068ZM180.991 50.3068C183.272 50.3068 185.123 48.4518 185.123 46.1663C185.123 43.8808 183.272 42.0258 180.991 42.0258C178.711 42.0258 176.859 43.8808 176.859 46.1663C176.859 48.4518 178.711 50.3068 180.991 50.3068ZM191.325 50.3068C193.605 50.3068 195.457 48.4518 195.457 46.1663C195.457 43.8808 193.605 42.0258 191.325 42.0258C189.044 42.0258 187.193 43.8808 187.193 46.1663C187.193 48.4518 189.044 50.3068 191.325 50.3068ZM201.654 50.3068C203.935 50.3068 205.786 48.4518 205.786 46.1663C205.786 43.8808 203.935 42.0258 201.654 42.0258C199.374 42.0258 197.522 43.8808 197.522 46.1663C197.522 48.4518 199.374 50.3068 201.654 50.3068ZM211.984 50.3068C214.265 50.3068 216.116 48.4518 216.116 46.1663C216.116 43.8808 214.265 42.0258 211.984 42.0258C209.704 42.0258 207.852 43.8808 207.852 46.1663C207.852 48.4518 209.704 50.3068 211.984 50.3068ZM98.3456 60.6616C100.626 60.6616 102.477 58.8065 102.477 56.521C102.477 54.2355 100.626 52.3805 98.3456 52.3805C96.0648 52.3805 94.2136 54.2355 94.2136 56.521C94.2136 58.8065 96.0648 60.6616 98.3456 60.6616ZM129.339 60.6616C131.619 60.6616 133.471 58.8065 133.471 56.521C133.471 54.2355 131.619 52.3805 129.339 52.3805C127.058 52.3805 125.207 54.2355 125.207 56.521C125.207 58.8065 127.058 60.6616 129.339 60.6616ZM180.991 60.6616C183.272 60.6616 185.123 58.8065 185.123 56.521C185.123 54.2355 183.272 52.3805 180.991 52.3805C178.711 52.3805 176.859 54.2355 176.859 56.521C176.859 58.8065 178.711 60.6616 180.991 60.6616ZM88.0157 71.0129C90.2964 71.0129 92.1476 69.1578 92.1476 66.8723C92.1476 64.5868 90.2964 62.7318 88.0157 62.7318C85.7349 62.7318 83.8837 64.5868 83.8837 66.8723C83.8837 69.1578 85.7349 71.0129 88.0157 71.0129ZM108.675 71.0129C110.956 71.0129 112.807 69.1578 112.807 66.8723C112.807 64.5868 110.956 62.7318 108.675 62.7318C106.395 62.7318 104.543 64.5868 104.543 66.8723C104.543 69.1578 106.395 71.0129 108.675 71.0129ZM129.339 71.0129C131.619 71.0129 133.471 69.1578 133.471 66.8723C133.471 64.5868 131.619 62.7318 129.339 62.7318C127.058 62.7318 125.207 64.5868 125.207 66.8723C125.207 69.1578 127.058 71.0129 129.339 71.0129ZM149.998 71.0129C152.279 71.0129 154.13 69.1578 154.13 66.8723C154.13 64.5868 152.279 62.7318 149.998 62.7318C147.718 62.7318 145.866 64.5868 145.866 66.8723C145.866 69.1578 147.718 71.0129 149.998 71.0129ZM170.661 71.0129C172.942 71.0129 174.793 69.1578 174.793 66.8723C174.793 64.5868 172.942 62.7318 170.661 62.7318C168.381 62.7318 166.529 64.5868 166.529 66.8723C166.529 69.1578 168.381 71.0129 170.661 71.0129ZM191.325 71.0129C193.605 71.0129 195.457 69.1578 195.457 66.8723C195.457 64.5868 193.605 62.7318 191.325 62.7318C189.044 62.7318 187.193 64.5868 187.193 66.8723C187.193 69.1578 189.044 71.0129 191.325 71.0129ZM211.984 71.0129C214.265 71.0129 216.116 69.1578 216.116 66.8723C216.116 64.5868 214.265 62.7318 211.984 62.7318C209.704 62.7318 207.852 64.5868 207.852 66.8723C207.852 69.1578 209.704 71.0129 211.984 71.0129ZM98.3456 81.3642C100.626 81.3642 102.477 79.5091 102.477 77.2236C102.477 74.9382 100.626 73.0831 98.3456 73.0831C96.0648 73.0831 94.2136 74.9382 94.2136 77.2236C94.2136 79.5091 96.0648 81.3642 98.3456 81.3642ZM129.339 81.3642C131.619 81.3642 133.471 79.5091 133.471 77.2236C133.471 74.9382 131.619 73.0831 129.339 73.0831C127.058 73.0831 125.207 74.9382 125.207 77.2236C125.207 79.5091 127.058 81.3642 129.339 81.3642ZM180.991 81.3642C183.272 81.3642 185.123 79.5091 185.123 77.2236C185.123 74.9382 183.272 73.0831 180.991 73.0831C178.711 73.0831 176.859 74.9382 176.859 77.2236C176.859 79.5091 178.711 81.3642 180.991 81.3642ZM191.325 81.3642C193.605 81.3642 195.457 79.5091 195.457 77.2236C195.457 74.9382 193.605 73.0831 191.325 73.0831C189.044 73.0831 187.193 74.9382 187.193 77.2236C187.193 79.5091 189.044 81.3642 191.325 81.3642ZM201.654 81.3642C203.935 81.3642 205.786 79.5091 205.786 77.2236C205.786 74.9382 203.935 73.0831 201.654 73.0831C199.374 73.0831 197.522 74.9382 197.522 77.2236C197.522 79.5091 199.374 81.3642 201.654 81.3642ZM211.984 81.3642C214.265 81.3642 216.116 79.5091 216.116 77.2236C216.116 74.9382 214.265 73.0831 211.984 73.0831C209.704 73.0831 207.852 74.9382 207.852 77.2236C207.852 79.5091 209.704 81.3642 211.984 81.3642ZM15.6964 91.7189C17.9771 91.7189 19.8283 89.8638 19.8283 87.5783C19.8283 85.2929 17.9771 83.4378 15.6964 83.4378C13.4156 83.4378 11.5644 85.2929 11.5644 87.5783C11.5644 89.8638 13.4156 91.7189 15.6964 91.7189ZM67.3525 91.7189C69.6333 91.7189 71.4845 89.8638 71.4845 87.5783C71.4845 85.2929 69.6333 83.4378 67.3525 83.4378C65.0718 83.4378 63.2206 85.2929 63.2206 87.5783C63.2206 89.8638 65.0718 91.7189 67.3525 91.7189ZM77.6824 91.7189C79.9632 91.7189 81.8144 89.8638 81.8144 87.5783C81.8144 85.2929 79.9632 83.4378 77.6824 83.4378C75.4017 83.4378 73.5505 85.2929 73.5505 87.5783C73.5505 89.8638 75.4017 91.7189 77.6824 91.7189ZM88.0157 91.7189C90.2964 91.7189 92.1476 89.8638 92.1476 87.5783C92.1476 85.2929 90.2964 83.4378 88.0157 83.4378C85.7349 83.4378 83.8837 85.2929 83.8837 87.5783C83.8837 89.8638 85.7349 91.7189 88.0157 91.7189ZM98.3456 91.7189C100.626 91.7189 102.477 89.8638 102.477 87.5783C102.477 85.2929 100.626 83.4378 98.3456 83.4378C96.0648 83.4378 94.2136 85.2929 94.2136 87.5783C94.2136 89.8638 96.0648 91.7189 98.3456 91.7189ZM108.675 91.7189C110.956 91.7189 112.807 89.8638 112.807 87.5783C112.807 85.2929 110.956 83.4378 108.675 83.4378C106.395 83.4378 104.543 85.2929 104.543 87.5783C104.543 89.8638 106.395 91.7189 108.675 91.7189ZM119.005 91.7189C121.286 91.7189 123.137 89.8638 123.137 87.5783C123.137 85.2929 121.286 83.4378 119.005 83.4378C116.725 83.4378 114.873 85.2929 114.873 87.5783C114.873 89.8638 116.725 91.7189 119.005 91.7189ZM129.339 91.7189C131.619 91.7189 133.471 89.8638 133.471 87.5783C133.471 85.2929 131.619 83.4378 129.339 83.4378C127.058 83.4378 125.207 85.2929 125.207 87.5783C125.207 89.8638 127.058 91.7189 129.339 91.7189ZM149.998 91.7189C152.279 91.7189 154.13 89.8638 154.13 87.5783C154.13 85.2929 152.279 83.4378 149.998 83.4378C147.718 83.4378 145.866 85.2929 145.866 87.5783C145.866 89.8638 147.718 91.7189 149.998 91.7189ZM160.332 91.7189C162.612 91.7189 164.464 89.8638 164.464 87.5783C164.464 85.2929 162.612 83.4378 160.332 83.4378C158.051 83.4378 156.2 85.2929 156.2 87.5783C156.2 89.8638 158.051 91.7189 160.332 91.7189ZM170.661 91.7189C172.942 91.7189 174.793 89.8638 174.793 87.5783C174.793 85.2929 172.942 83.4378 170.661 83.4378C168.381 83.4378 166.529 85.2929 166.529 87.5783C166.529 89.8638 168.381 91.7189 170.661 91.7189ZM201.654 91.7189C203.935 91.7189 205.786 89.8638 205.786 87.5783C205.786 85.2929 203.935 83.4378 201.654 83.4378C199.374 83.4378 197.522 85.2929 197.522 87.5783C197.522 89.8638 199.374 91.7189 201.654 91.7189ZM222.314 91.7189C224.595 91.7189 226.446 89.8638 226.446 87.5783C226.446 85.2929 224.595 83.4378 222.314 83.4378C220.033 83.4378 218.182 85.2929 218.182 87.5783C218.182 89.8638 220.033 91.7189 222.314 91.7189ZM284.3 91.7189C286.581 91.7189 288.432 89.8638 288.432 87.5783C288.432 85.2929 286.581 83.4378 284.3 83.4378C282.019 83.4378 280.168 85.2929 280.168 87.5783C280.168 89.8638 282.019 91.7189 284.3 91.7189ZM294.633 91.7189C296.914 91.7189 298.765 89.8638 298.765 87.5783C298.765 85.2929 296.914 83.4378 294.633 83.4378C292.353 83.4378 290.502 85.2929 290.502 87.5783C290.502 89.8638 292.353 91.7189 294.633 91.7189ZM5.36652 102.07C7.64727 102.07 9.49847 100.215 9.49847 97.9296C9.49847 95.6442 7.64727 93.7891 5.36652 93.7891C3.08577 93.7891 1.23457 95.6442 1.23457 97.9296C1.23457 100.215 3.08577 102.07 5.36652 102.07ZM15.6964 102.07C17.9771 102.07 19.8283 100.215 19.8283 97.9296C19.8283 95.6442 17.9771 93.7891 15.6964 93.7891C13.4156 93.7891 11.5644 95.6442 11.5644 97.9296C11.5644 100.215 13.4156 102.07 15.6964 102.07ZM46.6894 102.07C48.9702 102.07 50.8213 100.215 50.8213 97.9296C50.8213 95.6442 48.9702 93.7891 46.6894 93.7891C44.4086 93.7891 42.5575 95.6442 42.5575 97.9296C42.5575 100.215 44.4086 102.07 46.6894 102.07ZM57.0227 102.07C59.3034 102.07 61.1546 100.215 61.1546 97.9296C61.1546 95.6442 59.3034 93.7891 57.0227 93.7891C54.7419 93.7891 52.8907 95.6442 52.8907 97.9296C52.8907 100.215 54.7419 102.07 57.0227 102.07ZM77.6824 102.07C79.9632 102.07 81.8144 100.215 81.8144 97.9296C81.8144 95.6442 79.9632 93.7891 77.6824 93.7891C75.4017 93.7891 73.5505 95.6442 73.5505 97.9296C73.5505 100.215 75.4017 102.07 77.6824 102.07ZM139.668 102.07C141.949 102.07 143.8 100.215 143.8 97.9296C143.8 95.6442 141.949 93.7891 139.668 93.7891C137.388 93.7891 135.536 95.6442 135.536 97.9296C135.536 100.215 137.388 102.07 139.668 102.07ZM149.998 102.07C152.279 102.07 154.13 100.215 154.13 97.9296C154.13 95.6442 152.279 93.7891 149.998 93.7891C147.718 93.7891 145.866 95.6442 145.866 97.9296C145.866 100.215 147.718 102.07 149.998 102.07ZM160.332 102.07C162.612 102.07 164.464 100.215 164.464 97.9296C164.464 95.6442 162.612 93.7891 160.332 93.7891C158.051 93.7891 156.2 95.6442 156.2 97.9296C156.2 100.215 158.051 102.07 160.332 102.07ZM170.661 102.07C172.942 102.07 174.793 100.215 174.793 97.9296C174.793 95.6442 172.942 93.7891 170.661 93.7891C168.381 93.7891 166.529 95.6442 166.529 97.9296C166.529 100.215 168.381 102.07 170.661 102.07ZM191.325 102.07C193.605 102.07 195.457 100.215 195.457 97.9296C195.457 95.6442 193.605 93.7891 191.325 93.7891C189.044 93.7891 187.193 95.6442 187.193 97.9296C187.193 100.215 189.044 102.07 191.325 102.07ZM232.647 102.07C234.928 102.07 236.779 100.215 236.779 97.9296C236.779 95.6442 234.928 93.7891 232.647 93.7891C230.367 93.7891 228.516 95.6442 228.516 97.9296C228.516 100.215 230.367 102.07 232.647 102.07ZM242.977 102.07C245.258 102.07 247.109 100.215 247.109 97.9296C247.109 95.6442 245.258 93.7891 242.977 93.7891C240.697 93.7891 238.845 95.6442 238.845 97.9296C238.845 100.215 240.697 102.07 242.977 102.07ZM273.97 102.07C276.251 102.07 278.102 100.215 278.102 97.9296C278.102 95.6442 276.251 93.7891 273.97 93.7891C271.69 93.7891 269.838 95.6442 269.838 97.9296C269.838 100.215 271.69 102.07 273.97 102.07ZM284.3 102.07C286.581 102.07 288.432 100.215 288.432 97.9296C288.432 95.6442 286.581 93.7891 284.3 93.7891C282.019 93.7891 280.168 95.6442 280.168 97.9296C280.168 100.215 282.019 102.07 284.3 102.07ZM26.0297 112.421C28.3104 112.421 30.1616 110.566 30.1616 108.281C30.1616 105.995 28.3104 104.14 26.0297 104.14C23.7489 104.14 21.8977 105.995 21.8977 108.281C21.8977 110.566 23.7489 112.421 26.0297 112.421ZM46.6894 112.421C48.9702 112.421 50.8213 110.566 50.8213 108.281C50.8213 105.995 48.9702 104.14 46.6894 104.14C44.4086 104.14 42.5575 105.995 42.5575 108.281C42.5575 110.566 44.4086 112.421 46.6894 112.421ZM67.3525 112.421C69.6333 112.421 71.4845 110.566 71.4845 108.281C71.4845 105.995 69.6333 104.14 67.3525 104.14C65.0718 104.14 63.2206 105.995 63.2206 108.281C63.2206 110.566 65.0718 112.421 67.3525 112.421ZM77.6824 112.421C79.9632 112.421 81.8144 110.566 81.8144 108.281C81.8144 105.995 79.9632 104.14 77.6824 104.14C75.4017 104.14 73.5505 105.995 73.5505 108.281C73.5505 110.566 75.4017 112.421 77.6824 112.421ZM98.3456 112.421C100.626 112.421 102.477 110.566 102.477 108.281C102.477 105.995 100.626 104.14 98.3456 104.14C96.0648 104.14 94.2136 105.995 94.2136 108.281C94.2136 110.566 96.0648 112.421 98.3456 112.421ZM129.339 112.421C131.619 112.421 133.471 110.566 133.471 108.281C133.471 105.995 131.619 104.14 129.339 104.14C127.058 104.14 125.207 105.995 125.207 108.281C125.207 110.566 127.058 112.421 129.339 112.421ZM139.668 112.421C141.949 112.421 143.8 110.566 143.8 108.281C143.8 105.995 141.949 104.14 139.668 104.14C137.388 104.14 135.536 105.995 135.536 108.281C135.536 110.566 137.388 112.421 139.668 112.421ZM201.654 112.421C203.935 112.421 205.786 110.566 205.786 108.281C205.786 105.995 203.935 104.14 201.654 104.14C199.374 104.14 197.522 105.995 197.522 108.281C197.522 110.566 199.374 112.421 201.654 112.421ZM222.314 112.421C224.595 112.421 226.446 110.566 226.446 108.281C226.446 105.995 224.595 104.14 222.314 104.14C220.033 104.14 218.182 105.995 218.182 108.281C218.182 110.566 220.033 112.421 222.314 112.421ZM232.647 112.421C234.928 112.421 236.779 110.566 236.779 108.281C236.779 105.995 234.928 104.14 232.647 104.14C230.367 104.14 228.516 105.995 228.516 108.281C228.516 110.566 230.367 112.421 232.647 112.421ZM263.64 112.421C265.921 112.421 267.772 110.566 267.772 108.281C267.772 105.995 265.921 104.14 263.64 104.14C261.36 104.14 259.509 105.995 259.509 108.281C259.509 110.566 261.36 112.421 263.64 112.421ZM5.36652 122.776C7.64727 122.776 9.49847 120.921 9.49847 118.636C9.49847 116.35 7.64727 114.495 5.36652 114.495C3.08577 114.495 1.23457 116.35 1.23457 118.636C1.23457 120.921 3.08577 122.776 5.36652 122.776ZM77.6824 122.776C79.9632 122.776 81.8144 120.921 81.8144 118.636C81.8144 116.35 79.9632 114.495 77.6824 114.495C75.4017 114.495 73.5505 116.35 73.5505 118.636C73.5505 120.921 75.4017 122.776 77.6824 122.776ZM119.005 122.776C121.286 122.776 123.137 120.921 123.137 118.636C123.137 116.35 121.286 114.495 119.005 114.495C116.725 114.495 114.873 116.35 114.873 118.636C114.873 120.921 116.725 122.776 119.005 122.776ZM129.339 122.776C131.619 122.776 133.471 120.921 133.471 118.636C133.471 116.35 131.619 114.495 129.339 114.495C127.058 114.495 125.207 116.35 125.207 118.636C125.207 120.921 127.058 122.776 129.339 122.776ZM201.654 122.776C203.935 122.776 205.786 120.921 205.786 118.636C205.786 116.35 203.935 114.495 201.654 114.495C199.374 114.495 197.522 116.35 197.522 118.636C197.522 120.921 199.374 122.776 201.654 122.776ZM211.984 122.776C214.265 122.776 216.116 120.921 216.116 118.636C216.116 116.35 214.265 114.495 211.984 114.495C209.704 114.495 207.852 116.35 207.852 118.636C207.852 120.921 209.704 122.776 211.984 122.776ZM232.647 122.776C234.928 122.776 236.779 120.921 236.779 118.636C236.779 116.35 234.928 114.495 232.647 114.495C230.367 114.495 228.516 116.35 228.516 118.636C228.516 120.921 230.367 122.776 232.647 122.776ZM242.977 122.776C245.258 122.776 247.109 120.921 247.109 118.636C247.109 116.35 245.258 114.495 242.977 114.495C240.697 114.495 238.845 116.35 238.845 118.636C238.845 120.921 240.697 122.776 242.977 122.776ZM263.64 122.776C265.921 122.776 267.772 120.921 267.772 118.636C267.772 116.35 265.921 114.495 263.64 114.495C261.36 114.495 259.509 116.35 259.509 118.636C259.509 120.921 261.36 122.776 263.64 122.776ZM5.36652 133.127C7.64727 133.127 9.49847 131.272 9.49847 128.987C9.49847 126.701 7.64727 124.846 5.36652 124.846C3.08577 124.846 1.23457 126.701 1.23457 128.987C1.23457 131.272 3.08577 133.127 5.36652 133.127ZM15.6964 133.127C17.9771 133.127 19.8283 131.272 19.8283 128.987C19.8283 126.701 17.9771 124.846 15.6964 124.846C13.4156 124.846 11.5644 126.701 11.5644 128.987C11.5644 131.272 13.4156 133.127 15.6964 133.127ZM26.0297 133.127C28.3104 133.127 30.1616 131.272 30.1616 128.987C30.1616 126.701 28.3104 124.846 26.0297 124.846C23.7489 124.846 21.8977 126.701 21.8977 128.987C21.8977 131.272 23.7489 133.127 26.0297 133.127ZM36.3595 133.127C38.6403 133.127 40.4915 131.272 40.4915 128.987C40.4915 126.701 38.6403 124.846 36.3595 124.846C34.0788 124.846 32.2276 126.701 32.2276 128.987C32.2276 131.272 34.0788 133.127 36.3595 133.127ZM57.0227 133.127C59.3034 133.127 61.1546 131.272 61.1546 128.987C61.1546 126.701 59.3034 124.846 57.0227 124.846C54.7419 124.846 52.8907 126.701 52.8907 128.987C52.8907 131.272 54.7419 133.127 57.0227 133.127ZM67.3525 133.127C69.6333 133.127 71.4845 131.272 71.4845 128.987C71.4845 126.701 69.6333 124.846 67.3525 124.846C65.0718 124.846 63.2206 126.701 63.2206 128.987C63.2206 131.272 65.0718 133.127 67.3525 133.127ZM77.6824 133.127C79.9632 133.127 81.8144 131.272 81.8144 128.987C81.8144 126.701 79.9632 124.846 77.6824 124.846C75.4017 124.846 73.5505 126.701 73.5505 128.987C73.5505 131.272 75.4017 133.127 77.6824 133.127ZM119.005 133.127C121.286 133.127 123.137 131.272 123.137 128.987C123.137 126.701 121.286 124.846 119.005 124.846C116.725 124.846 114.873 126.701 114.873 128.987C114.873 131.272 116.725 133.127 119.005 133.127ZM139.668 133.127C141.949 133.127 143.8 131.272 143.8 128.987C143.8 126.701 141.949 124.846 139.668 124.846C137.388 124.846 135.536 126.701 135.536 128.987C135.536 131.272 137.388 133.127 139.668 133.127ZM149.998 133.127C152.279 133.127 154.13 131.272 154.13 128.987C154.13 126.701 152.279 124.846 149.998 124.846C147.718 124.846 145.866 126.701 145.866 128.987C145.866 131.272 147.718 133.127 149.998 133.127ZM170.661 133.127C172.942 133.127 174.793 131.272 174.793 128.987C174.793 126.701 172.942 124.846 170.661 124.846C168.381 124.846 166.529 126.701 166.529 128.987C166.529 131.272 168.381 133.127 170.661 133.127ZM191.325 133.127C193.605 133.127 195.457 131.272 195.457 128.987C195.457 126.701 193.605 124.846 191.325 124.846C189.044 124.846 187.193 126.701 187.193 128.987C187.193 131.272 189.044 133.127 191.325 133.127ZM211.984 133.127C214.265 133.127 216.116 131.272 216.116 128.987C216.116 126.701 214.265 124.846 211.984 124.846C209.704 124.846 207.852 126.701 207.852 128.987C207.852 131.272 209.704 133.127 211.984 133.127ZM222.314 133.127C224.595 133.127 226.446 131.272 226.446 128.987C226.446 126.701 224.595 124.846 222.314 124.846C220.033 124.846 218.182 126.701 218.182 128.987C218.182 131.272 220.033 133.127 222.314 133.127ZM232.647 133.127C234.928 133.127 236.779 131.272 236.779 128.987C236.779 126.701 234.928 124.846 232.647 124.846C230.367 124.846 228.516 126.701 228.516 128.987C228.516 131.272 230.367 133.127 232.647 133.127ZM273.97 133.127C276.251 133.127 278.102 131.272 278.102 128.987C278.102 126.701 276.251 124.846 273.97 124.846C271.69 124.846 269.838 126.701 269.838 128.987C269.838 131.272 271.69 133.127 273.97 133.127ZM284.3 133.127C286.581 133.127 288.432 131.272 288.432 128.987C288.432 126.701 286.581 124.846 284.3 124.846C282.019 124.846 280.168 126.701 280.168 128.987C280.168 131.272 282.019 133.127 284.3 133.127ZM5.36652 143.479C7.64727 143.479 9.49847 141.624 9.49847 139.338C9.49847 137.053 7.64727 135.198 5.36652 135.198C3.08577 135.198 1.23457 137.053 1.23457 139.338C1.23457 141.624 3.08577 143.479 5.36652 143.479ZM36.3595 143.479C38.6403 143.479 40.4915 141.624 40.4915 139.338C40.4915 137.053 38.6403 135.198 36.3595 135.198C34.0788 135.198 32.2276 137.053 32.2276 139.338C32.2276 141.624 34.0788 143.479 36.3595 143.479ZM46.6894 143.479C48.9702 143.479 50.8213 141.624 50.8213 139.338C50.8213 137.053 48.9702 135.198 46.6894 135.198C44.4086 135.198 42.5575 137.053 42.5575 139.338C42.5575 141.624 44.4086 143.479 46.6894 143.479ZM77.6824 143.479C79.9632 143.479 81.8144 141.624 81.8144 139.338C81.8144 137.053 79.9632 135.198 77.6824 135.198C75.4017 135.198 73.5505 137.053 73.5505 139.338C73.5505 141.624 75.4017 143.479 77.6824 143.479ZM98.3456 143.479C100.626 143.479 102.477 141.624 102.477 139.338C102.477 137.053 100.626 135.198 98.3456 135.198C96.0648 135.198 94.2136 137.053 94.2136 139.338C94.2136 141.624 96.0648 143.479 98.3456 143.479ZM108.675 143.479C110.956 143.479 112.807 141.624 112.807 139.338C112.807 137.053 110.956 135.198 108.675 135.198C106.395 135.198 104.543 137.053 104.543 139.338C104.543 141.624 106.395 143.479 108.675 143.479ZM129.339 143.479C131.619 143.479 133.471 141.624 133.471 139.338C133.471 137.053 131.619 135.198 129.339 135.198C127.058 135.198 125.207 137.053 125.207 139.338C125.207 141.624 127.058 143.479 129.339 143.479ZM160.332 143.479C162.612 143.479 164.464 141.624 164.464 139.338C164.464 137.053 162.612 135.198 160.332 135.198C158.051 135.198 156.2 137.053 156.2 139.338C156.2 141.624 158.051 143.479 160.332 143.479ZM170.661 143.479C172.942 143.479 174.793 141.624 174.793 139.338C174.793 137.053 172.942 135.198 170.661 135.198C168.381 135.198 166.529 137.053 166.529 139.338C166.529 141.624 168.381 143.479 170.661 143.479ZM191.325 143.479C193.605 143.479 195.457 141.624 195.457 139.338C195.457 137.053 193.605 135.198 191.325 135.198C189.044 135.198 187.193 137.053 187.193 139.338C187.193 141.624 189.044 143.479 191.325 143.479ZM201.654 143.479C203.935 143.479 205.786 141.624 205.786 139.338C205.786 137.053 203.935 135.198 201.654 135.198C199.374 135.198 197.522 137.053 197.522 139.338C197.522 141.624 199.374 143.479 201.654 143.479ZM232.647 143.479C234.928 143.479 236.779 141.624 236.779 139.338C236.779 137.053 234.928 135.198 232.647 135.198C230.367 135.198 228.516 137.053 228.516 139.338C228.516 141.624 230.367 143.479 232.647 143.479ZM253.307 143.479C255.588 143.479 257.439 141.624 257.439 139.338C257.439 137.053 255.588 135.198 253.307 135.198C251.026 135.198 249.175 137.053 249.175 139.338C249.175 141.624 251.026 143.479 253.307 143.479ZM263.64 143.479C265.921 143.479 267.772 141.624 267.772 139.338C267.772 137.053 265.921 135.198 263.64 135.198C261.36 135.198 259.509 137.053 259.509 139.338C259.509 141.624 261.36 143.479 263.64 143.479ZM294.633 143.479C296.914 143.479 298.765 141.624 298.765 139.338C298.765 137.053 296.914 135.198 294.633 135.198C292.353 135.198 290.502 137.053 290.502 139.338C290.502 141.624 292.353 143.479 294.633 143.479ZM5.36652 153.833C7.64727 153.833 9.49847 151.978 9.49847 149.693C9.49847 147.407 7.64727 145.552 5.36652 145.552C3.08577 145.552 1.23457 147.407 1.23457 149.693C1.23457 151.978 3.08577 153.833 5.36652 153.833ZM15.6964 153.833C17.9771 153.833 19.8283 151.978 19.8283 149.693C19.8283 147.407 17.9771 145.552 15.6964 145.552C13.4156 145.552 11.5644 147.407 11.5644 149.693C11.5644 151.978 13.4156 153.833 15.6964 153.833ZM26.0297 153.833C28.3104 153.833 30.1616 151.978 30.1616 149.693C30.1616 147.407 28.3104 145.552 26.0297 145.552C23.7489 145.552 21.8977 147.407 21.8977 149.693C21.8977 151.978 23.7489 153.833 26.0297 153.833ZM36.3595 153.833C38.6403 153.833 40.4915 151.978 40.4915 149.693C40.4915 147.407 38.6403 145.552 36.3595 145.552C34.0788 145.552 32.2276 147.407 32.2276 149.693C32.2276 151.978 34.0788 153.833 36.3595 153.833ZM57.0227 153.833C59.3034 153.833 61.1546 151.978 61.1546 149.693C61.1546 147.407 59.3034 145.552 57.0227 145.552C54.7419 145.552 52.8907 147.407 52.8907 149.693C52.8907 151.978 54.7419 153.833 57.0227 153.833ZM67.3525 153.833C69.6333 153.833 71.4845 151.978 71.4845 149.693C71.4845 147.407 69.6333 145.552 67.3525 145.552C65.0718 145.552 63.2206 147.407 63.2206 149.693C63.2206 151.978 65.0718 153.833 67.3525 153.833ZM77.6824 153.833C79.9632 153.833 81.8144 151.978 81.8144 149.693C81.8144 147.407 79.9632 145.552 77.6824 145.552C75.4017 145.552 73.5505 147.407 73.5505 149.693C73.5505 151.978 75.4017 153.833 77.6824 153.833ZM98.3456 153.833C100.626 153.833 102.477 151.978 102.477 149.693C102.477 147.407 100.626 145.552 98.3456 145.552C96.0648 145.552 94.2136 147.407 94.2136 149.693C94.2136 151.978 96.0648 153.833 98.3456 153.833ZM108.675 153.833C110.956 153.833 112.807 151.978 112.807 149.693C112.807 147.407 110.956 145.552 108.675 145.552C106.395 145.552 104.543 147.407 104.543 149.693C104.543 151.978 106.395 153.833 108.675 153.833ZM129.339 153.833C131.619 153.833 133.471 151.978 133.471 149.693C133.471 147.407 131.619 145.552 129.339 145.552C127.058 145.552 125.207 147.407 125.207 149.693C125.207 151.978 127.058 153.833 129.339 153.833ZM149.998 153.833C152.279 153.833 154.13 151.978 154.13 149.693C154.13 147.407 152.279 145.552 149.998 145.552C147.718 145.552 145.866 147.407 145.866 149.693C145.866 151.978 147.718 153.833 149.998 153.833ZM170.661 153.833C172.942 153.833 174.793 151.978 174.793 149.693C174.793 147.407 172.942 145.552 170.661 145.552C168.381 145.552 166.529 147.407 166.529 149.693C166.529 151.978 168.381 153.833 170.661 153.833ZM191.325 153.833C193.605 153.833 195.457 151.978 195.457 149.693C195.457 147.407 193.605 145.552 191.325 145.552C189.044 145.552 187.193 147.407 187.193 149.693C187.193 151.978 189.044 153.833 191.325 153.833ZM222.314 153.833C224.595 153.833 226.446 151.978 226.446 149.693C226.446 147.407 224.595 145.552 222.314 145.552C220.033 145.552 218.182 147.407 218.182 149.693C218.182 151.978 220.033 153.833 222.314 153.833ZM242.977 153.833C245.258 153.833 247.109 151.978 247.109 149.693C247.109 147.407 245.258 145.552 242.977 145.552C240.697 145.552 238.845 147.407 238.845 149.693C238.845 151.978 240.697 153.833 242.977 153.833ZM5.36652 164.185C7.64727 164.185 9.49847 162.33 9.49847 160.044C9.49847 157.759 7.64727 155.904 5.36652 155.904C3.08577 155.904 1.23457 157.759 1.23457 160.044C1.23457 162.33 3.08577 164.185 5.36652 164.185ZM26.0297 164.185C28.3104 164.185 30.1616 162.33 30.1616 160.044C30.1616 157.759 28.3104 155.904 26.0297 155.904C23.7489 155.904 21.8977 157.759 21.8977 160.044C21.8977 162.33 23.7489 164.185 26.0297 164.185ZM36.3595 164.185C38.6403 164.185 40.4915 162.33 40.4915 160.044C40.4915 157.759 38.6403 155.904 36.3595 155.904C34.0788 155.904 32.2276 157.759 32.2276 160.044C32.2276 162.33 34.0788 164.185 36.3595 164.185ZM46.6894 164.185C48.9702 164.185 50.8213 162.33 50.8213 160.044C50.8213 157.759 48.9702 155.904 46.6894 155.904C44.4086 155.904 42.5575 157.759 42.5575 160.044C42.5575 162.33 44.4086 164.185 46.6894 164.185ZM57.0227 164.185C59.3034 164.185 61.1546 162.33 61.1546 160.044C61.1546 157.759 59.3034 155.904 57.0227 155.904C54.7419 155.904 52.8907 157.759 52.8907 160.044C52.8907 162.33 54.7419 164.185 57.0227 164.185ZM88.0157 164.185C90.2964 164.185 92.1476 162.33 92.1476 160.044C92.1476 157.759 90.2964 155.904 88.0157 155.904C85.7349 155.904 83.8837 157.759 83.8837 160.044C83.8837 162.33 85.7349 164.185 88.0157 164.185ZM129.339 164.185C131.619 164.185 133.471 162.33 133.471 160.044C133.471 157.759 131.619 155.904 129.339 155.904C127.058 155.904 125.207 157.759 125.207 160.044C125.207 162.33 127.058 164.185 129.339 164.185ZM222.314 164.185C224.595 164.185 226.446 162.33 226.446 160.044C226.446 157.759 224.595 155.904 222.314 155.904C220.033 155.904 218.182 157.759 218.182 160.044C218.182 162.33 220.033 164.185 222.314 164.185ZM232.647 164.185C234.928 164.185 236.779 162.33 236.779 160.044C236.779 157.759 234.928 155.904 232.647 155.904C230.367 155.904 228.516 157.759 228.516 160.044C228.516 162.33 230.367 164.185 232.647 164.185ZM253.307 164.185C255.588 164.185 257.439 162.33 257.439 160.044C257.439 157.759 255.588 155.904 253.307 155.904C251.026 155.904 249.175 157.759 249.175 160.044C249.175 162.33 251.026 164.185 253.307 164.185ZM263.64 164.185C265.921 164.185 267.772 162.33 267.772 160.044C267.772 157.759 265.921 155.904 263.64 155.904C261.36 155.904 259.509 157.759 259.509 160.044C259.509 162.33 261.36 164.185 263.64 164.185ZM273.97 164.185C276.251 164.185 278.102 162.33 278.102 160.044C278.102 157.759 276.251 155.904 273.97 155.904C271.69 155.904 269.838 157.759 269.838 160.044C269.838 162.33 271.69 164.185 273.97 164.185ZM294.633 164.185C296.914 164.185 298.765 162.33 298.765 160.044C298.765 157.759 296.914 155.904 294.633 155.904C292.353 155.904 290.502 157.759 290.502 160.044C290.502 162.33 292.353 164.185 294.633 164.185ZM5.36652 174.536C7.64727 174.536 9.49847 172.681 9.49847 170.396C9.49847 168.11 7.64727 166.255 5.36652 166.255C3.08577 166.255 1.23457 168.11 1.23457 170.396C1.23457 172.681 3.08577 174.536 5.36652 174.536ZM26.0297 174.536C28.3104 174.536 30.1616 172.681 30.1616 170.396C30.1616 168.11 28.3104 166.255 26.0297 166.255C23.7489 166.255 21.8977 168.11 21.8977 170.396C21.8977 172.681 23.7489 174.536 26.0297 174.536ZM57.0227 174.536C59.3034 174.536 61.1546 172.681 61.1546 170.396C61.1546 168.11 59.3034 166.255 57.0227 166.255C54.7419 166.255 52.8907 168.11 52.8907 170.396C52.8907 172.681 54.7419 174.536 57.0227 174.536ZM67.3525 174.536C69.6333 174.536 71.4845 172.681 71.4845 170.396C71.4845 168.11 69.6333 166.255 67.3525 166.255C65.0718 166.255 63.2206 168.11 63.2206 170.396C63.2206 172.681 65.0718 174.536 67.3525 174.536ZM88.0157 174.536C90.2964 174.536 92.1476 172.681 92.1476 170.396C92.1476 168.11 90.2964 166.255 88.0157 166.255C85.7349 166.255 83.8837 168.11 83.8837 170.396C83.8837 172.681 85.7349 174.536 88.0157 174.536ZM119.005 174.536C121.286 174.536 123.137 172.681 123.137 170.396C123.137 168.11 121.286 166.255 119.005 166.255C116.725 166.255 114.873 168.11 114.873 170.396C114.873 172.681 116.725 174.536 119.005 174.536ZM139.668 174.536C141.949 174.536 143.8 172.681 143.8 170.396C143.8 168.11 141.949 166.255 139.668 166.255C137.388 166.255 135.536 168.11 135.536 170.396C135.536 172.681 137.388 174.536 139.668 174.536ZM160.332 174.536C162.612 174.536 164.464 172.681 164.464 170.396C164.464 168.11 162.612 166.255 160.332 166.255C158.051 166.255 156.2 168.11 156.2 170.396C156.2 172.681 158.051 174.536 160.332 174.536ZM191.325 174.536C193.605 174.536 195.457 172.681 195.457 170.396C195.457 168.11 193.605 166.255 191.325 166.255C189.044 166.255 187.193 168.11 187.193 170.396C187.193 172.681 189.044 174.536 191.325 174.536ZM211.984 174.536C214.265 174.536 216.116 172.681 216.116 170.396C216.116 168.11 214.265 166.255 211.984 166.255C209.704 166.255 207.852 168.11 207.852 170.396C207.852 172.681 209.704 174.536 211.984 174.536ZM222.314 174.536C224.595 174.536 226.446 172.681 226.446 170.396C226.446 168.11 224.595 166.255 222.314 166.255C220.033 166.255 218.182 168.11 218.182 170.396C218.182 172.681 220.033 174.536 222.314 174.536ZM253.307 174.536C255.588 174.536 257.439 172.681 257.439 170.396C257.439 168.11 255.588 166.255 253.307 166.255C251.026 166.255 249.175 168.11 249.175 170.396C249.175 172.681 251.026 174.536 253.307 174.536ZM263.64 174.536C265.921 174.536 267.772 172.681 267.772 170.396C267.772 168.11 265.921 166.255 263.64 166.255C261.36 166.255 259.509 168.11 259.509 170.396C259.509 172.681 261.36 174.536 263.64 174.536ZM273.97 174.536C276.251 174.536 278.102 172.681 278.102 170.396C278.102 168.11 276.251 166.255 273.97 166.255C271.69 166.255 269.838 168.11 269.838 170.396C269.838 172.681 271.69 174.536 273.97 174.536ZM5.36652 184.887C7.64727 184.887 9.49847 183.032 9.49847 180.747C9.49847 178.461 7.64727 176.606 5.36652 176.606C3.08577 176.606 1.23457 178.461 1.23457 180.747C1.23457 183.032 3.08577 184.887 5.36652 184.887ZM15.6964 184.887C17.9771 184.887 19.8283 183.032 19.8283 180.747C19.8283 178.461 17.9771 176.606 15.6964 176.606C13.4156 176.606 11.5644 178.461 11.5644 180.747C11.5644 183.032 13.4156 184.887 15.6964 184.887ZM46.6894 184.887C48.9702 184.887 50.8213 183.032 50.8213 180.747C50.8213 178.461 48.9702 176.606 46.6894 176.606C44.4086 176.606 42.5575 178.461 42.5575 180.747C42.5575 183.032 44.4086 184.887 46.6894 184.887ZM57.0227 184.887C59.3034 184.887 61.1546 183.032 61.1546 180.747C61.1546 178.461 59.3034 176.606 57.0227 176.606C54.7419 176.606 52.8907 178.461 52.8907 180.747C52.8907 183.032 54.7419 184.887 57.0227 184.887ZM77.6824 184.887C79.9632 184.887 81.8144 183.032 81.8144 180.747C81.8144 178.461 79.9632 176.606 77.6824 176.606C75.4017 176.606 73.5505 178.461 73.5505 180.747C73.5505 183.032 75.4017 184.887 77.6824 184.887ZM98.3456 184.887C100.626 184.887 102.477 183.032 102.477 180.747C102.477 178.461 100.626 176.606 98.3456 176.606C96.0648 176.606 94.2136 178.461 94.2136 180.747C94.2136 183.032 96.0648 184.887 98.3456 184.887ZM108.675 184.887C110.956 184.887 112.807 183.032 112.807 180.747C112.807 178.461 110.956 176.606 108.675 176.606C106.395 176.606 104.543 178.461 104.543 180.747C104.543 183.032 106.395 184.887 108.675 184.887ZM119.005 184.887C121.286 184.887 123.137 183.032 123.137 180.747C123.137 178.461 121.286 176.606 119.005 176.606C116.725 176.606 114.873 178.461 114.873 180.747C114.873 183.032 116.725 184.887 119.005 184.887ZM129.339 184.887C131.619 184.887 133.471 183.032 133.471 180.747C133.471 178.461 131.619 176.606 129.339 176.606C127.058 176.606 125.207 178.461 125.207 180.747C125.207 183.032 127.058 184.887 129.339 184.887ZM170.661 184.887C172.942 184.887 174.793 183.032 174.793 180.747C174.793 178.461 172.942 176.606 170.661 176.606C168.381 176.606 166.529 178.461 166.529 180.747C166.529 183.032 168.381 184.887 170.661 184.887ZM180.991 184.887C183.272 184.887 185.123 183.032 185.123 180.747C185.123 178.461 183.272 176.606 180.991 176.606C178.711 176.606 176.859 178.461 176.859 180.747C176.859 183.032 178.711 184.887 180.991 184.887ZM222.314 184.887C224.595 184.887 226.446 183.032 226.446 180.747C226.446 178.461 224.595 176.606 222.314 176.606C220.033 176.606 218.182 178.461 218.182 180.747C218.182 183.032 220.033 184.887 222.314 184.887ZM253.307 184.887C255.588 184.887 257.439 183.032 257.439 180.747C257.439 178.461 255.588 176.606 253.307 176.606C251.026 176.606 249.175 178.461 249.175 180.747C249.175 183.032 251.026 184.887 253.307 184.887ZM263.64 184.887C265.921 184.887 267.772 183.032 267.772 180.747C267.772 178.461 265.921 176.606 263.64 176.606C261.36 176.606 259.509 178.461 259.509 180.747C259.509 183.032 261.36 184.887 263.64 184.887ZM273.97 184.887C276.251 184.887 278.102 183.032 278.102 180.747C278.102 178.461 276.251 176.606 273.97 176.606C271.69 176.606 269.838 178.461 269.838 180.747C269.838 183.032 271.69 184.887 273.97 184.887ZM294.633 184.887C296.914 184.887 298.765 183.032 298.765 180.747C298.765 178.461 296.914 176.606 294.633 176.606C292.353 176.606 290.502 178.461 290.502 180.747C290.502 183.032 292.353 184.887 294.633 184.887ZM5.36652 195.242C7.64727 195.242 9.49847 193.387 9.49847 191.102C9.49847 188.816 7.64727 186.961 5.36652 186.961C3.08577 186.961 1.23457 188.816 1.23457 191.102C1.23457 193.387 3.08577 195.242 5.36652 195.242ZM15.6964 195.242C17.9771 195.242 19.8283 193.387 19.8283 191.102C19.8283 188.816 17.9771 186.961 15.6964 186.961C13.4156 186.961 11.5644 188.816 11.5644 191.102C11.5644 193.387 13.4156 195.242 15.6964 195.242ZM46.6894 195.242C48.9702 195.242 50.8213 193.387 50.8213 191.102C50.8213 188.816 48.9702 186.961 46.6894 186.961C44.4086 186.961 42.5575 188.816 42.5575 191.102C42.5575 193.387 44.4086 195.242 46.6894 195.242ZM67.3525 195.242C69.6333 195.242 71.4845 193.387 71.4845 191.102C71.4845 188.816 69.6333 186.961 67.3525 186.961C65.0718 186.961 63.2206 188.816 63.2206 191.102C63.2206 193.387 65.0718 195.242 67.3525 195.242ZM108.675 195.242C110.956 195.242 112.807 193.387 112.807 191.102C112.807 188.816 110.956 186.961 108.675 186.961C106.395 186.961 104.543 188.816 104.543 191.102C104.543 193.387 106.395 195.242 108.675 195.242ZM149.998 195.242C152.279 195.242 154.13 193.387 154.13 191.102C154.13 188.816 152.279 186.961 149.998 186.961C147.718 186.961 145.866 188.816 145.866 191.102C145.866 193.387 147.718 195.242 149.998 195.242ZM170.661 195.242C172.942 195.242 174.793 193.387 174.793 191.102C174.793 188.816 172.942 186.961 170.661 186.961C168.381 186.961 166.529 188.816 166.529 191.102C166.529 193.387 168.381 195.242 170.661 195.242ZM201.654 195.242C203.935 195.242 205.786 193.387 205.786 191.102C205.786 188.816 203.935 186.961 201.654 186.961C199.374 186.961 197.522 188.816 197.522 191.102C197.522 193.387 199.374 195.242 201.654 195.242ZM253.307 195.242C255.588 195.242 257.439 193.387 257.439 191.102C257.439 188.816 255.588 186.961 253.307 186.961C251.026 186.961 249.175 188.816 249.175 191.102C249.175 193.387 251.026 195.242 253.307 195.242ZM294.633 195.242C296.914 195.242 298.765 193.387 298.765 191.102C298.765 188.816 296.914 186.961 294.633 186.961C292.353 186.961 290.502 188.816 290.502 191.102C290.502 193.387 292.353 195.242 294.633 195.242ZM5.36652 205.593C7.64727 205.593 9.49847 203.738 9.49847 201.453C9.49847 199.167 7.64727 197.312 5.36652 197.312C3.08577 197.312 1.23457 199.167 1.23457 201.453C1.23457 203.738 3.08577 205.593 5.36652 205.593ZM36.3595 205.593C38.6403 205.593 40.4915 203.738 40.4915 201.453C40.4915 199.167 38.6403 197.312 36.3595 197.312C34.0788 197.312 32.2276 199.167 32.2276 201.453C32.2276 203.738 34.0788 205.593 36.3595 205.593ZM46.6894 205.593C48.9702 205.593 50.8213 203.738 50.8213 201.453C50.8213 199.167 48.9702 197.312 46.6894 197.312C44.4086 197.312 42.5575 199.167 42.5575 201.453C42.5575 203.738 44.4086 205.593 46.6894 205.593ZM77.6824 205.593C79.9632 205.593 81.8144 203.738 81.8144 201.453C81.8144 199.167 79.9632 197.312 77.6824 197.312C75.4017 197.312 73.5505 199.167 73.5505 201.453C73.5505 203.738 75.4017 205.593 77.6824 205.593ZM88.0157 205.593C90.2964 205.593 92.1476 203.738 92.1476 201.453C92.1476 199.167 90.2964 197.312 88.0157 197.312C85.7349 197.312 83.8837 199.167 83.8837 201.453C83.8837 203.738 85.7349 205.593 88.0157 205.593ZM98.3456 205.593C100.626 205.593 102.477 203.738 102.477 201.453C102.477 199.167 100.626 197.312 98.3456 197.312C96.0648 197.312 94.2136 199.167 94.2136 201.453C94.2136 203.738 96.0648 205.593 98.3456 205.593ZM108.675 205.593C110.956 205.593 112.807 203.738 112.807 201.453C112.807 199.167 110.956 197.312 108.675 197.312C106.395 197.312 104.543 199.167 104.543 201.453C104.543 203.738 106.395 205.593 108.675 205.593ZM129.339 205.593C131.619 205.593 133.471 203.738 133.471 201.453C133.471 199.167 131.619 197.312 129.339 197.312C127.058 197.312 125.207 199.167 125.207 201.453C125.207 203.738 127.058 205.593 129.339 205.593ZM160.332 205.593C162.612 205.593 164.464 203.738 164.464 201.453C164.464 199.167 162.612 197.312 160.332 197.312C158.051 197.312 156.2 199.167 156.2 201.453C156.2 203.738 158.051 205.593 160.332 205.593ZM170.661 205.593C172.942 205.593 174.793 203.738 174.793 201.453C174.793 199.167 172.942 197.312 170.661 197.312C168.381 197.312 166.529 199.167 166.529 201.453C166.529 203.738 168.381 205.593 170.661 205.593ZM222.314 205.593C224.595 205.593 226.446 203.738 226.446 201.453C226.446 199.167 224.595 197.312 222.314 197.312C220.033 197.312 218.182 199.167 218.182 201.453C218.182 203.738 220.033 205.593 222.314 205.593ZM232.647 205.593C234.928 205.593 236.779 203.738 236.779 201.453C236.779 199.167 234.928 197.312 232.647 197.312C230.367 197.312 228.516 199.167 228.516 201.453C228.516 203.738 230.367 205.593 232.647 205.593ZM263.64 205.593C265.921 205.593 267.772 203.738 267.772 201.453C267.772 199.167 265.921 197.312 263.64 197.312C261.36 197.312 259.509 199.167 259.509 201.453C259.509 203.738 261.36 205.593 263.64 205.593ZM284.3 205.593C286.581 205.593 288.432 203.738 288.432 201.453C288.432 199.167 286.581 197.312 284.3 197.312C282.019 197.312 280.168 199.167 280.168 201.453C280.168 203.738 282.019 205.593 284.3 205.593ZM5.36652 215.945C7.64727 215.945 9.49847 214.09 9.49847 211.804C9.49847 209.519 7.64727 207.664 5.36652 207.664C3.08577 207.664 1.23457 209.519 1.23457 211.804C1.23457 214.09 3.08577 215.945 5.36652 215.945ZM36.3595 215.945C38.6403 215.945 40.4915 214.09 40.4915 211.804C40.4915 209.519 38.6403 207.664 36.3595 207.664C34.0788 207.664 32.2276 209.519 32.2276 211.804C32.2276 214.09 34.0788 215.945 36.3595 215.945ZM57.0227 215.945C59.3034 215.945 61.1546 214.09 61.1546 211.804C61.1546 209.519 59.3034 207.664 57.0227 207.664C54.7419 207.664 52.8907 209.519 52.8907 211.804C52.8907 214.09 54.7419 215.945 57.0227 215.945ZM67.3525 215.945C69.6333 215.945 71.4845 214.09 71.4845 211.804C71.4845 209.519 69.6333 207.664 67.3525 207.664C65.0718 207.664 63.2206 209.519 63.2206 211.804C63.2206 214.09 65.0718 215.945 67.3525 215.945ZM77.6824 215.945C79.9632 215.945 81.8144 214.09 81.8144 211.804C81.8144 209.519 79.9632 207.664 77.6824 207.664C75.4017 207.664 73.5505 209.519 73.5505 211.804C73.5505 214.09 75.4017 215.945 77.6824 215.945ZM88.0157 215.945C90.2964 215.945 92.1476 214.09 92.1476 211.804C92.1476 209.519 90.2964 207.664 88.0157 207.664C85.7349 207.664 83.8837 209.519 83.8837 211.804C83.8837 214.09 85.7349 215.945 88.0157 215.945ZM119.005 215.945C121.286 215.945 123.137 214.09 123.137 211.804C123.137 209.519 121.286 207.664 119.005 207.664C116.725 207.664 114.873 209.519 114.873 211.804C114.873 214.09 116.725 215.945 119.005 215.945ZM129.339 215.945C131.619 215.945 133.471 214.09 133.471 211.804C133.471 209.519 131.619 207.664 129.339 207.664C127.058 207.664 125.207 209.519 125.207 211.804C125.207 214.09 127.058 215.945 129.339 215.945ZM139.668 215.945C141.949 215.945 143.8 214.09 143.8 211.804C143.8 209.519 141.949 207.664 139.668 207.664C137.388 207.664 135.536 209.519 135.536 211.804C135.536 214.09 137.388 215.945 139.668 215.945ZM170.661 215.945C172.942 215.945 174.793 214.09 174.793 211.804C174.793 209.519 172.942 207.664 170.661 207.664C168.381 207.664 166.529 209.519 166.529 211.804C166.529 214.09 168.381 215.945 170.661 215.945ZM180.991 215.945C183.272 215.945 185.123 214.09 185.123 211.804C185.123 209.519 183.272 207.664 180.991 207.664C178.711 207.664 176.859 209.519 176.859 211.804C176.859 214.09 178.711 215.945 180.991 215.945ZM211.984 215.945C214.265 215.945 216.116 214.09 216.116 211.804C216.116 209.519 214.265 207.664 211.984 207.664C209.704 207.664 207.852 209.519 207.852 211.804C207.852 214.09 209.704 215.945 211.984 215.945ZM222.314 215.945C224.595 215.945 226.446 214.09 226.446 211.804C226.446 209.519 224.595 207.664 222.314 207.664C220.033 207.664 218.182 209.519 218.182 211.804C218.182 214.09 220.033 215.945 222.314 215.945ZM232.647 215.945C234.928 215.945 236.779 214.09 236.779 211.804C236.779 209.519 234.928 207.664 232.647 207.664C230.367 207.664 228.516 209.519 228.516 211.804C228.516 214.09 230.367 215.945 232.647 215.945ZM242.977 215.945C245.258 215.945 247.109 214.09 247.109 211.804C247.109 209.519 245.258 207.664 242.977 207.664C240.697 207.664 238.845 209.519 238.845 211.804C238.845 214.09 240.697 215.945 242.977 215.945ZM253.307 215.945C255.588 215.945 257.439 214.09 257.439 211.804C257.439 209.519 255.588 207.664 253.307 207.664C251.026 207.664 249.175 209.519 249.175 211.804C249.175 214.09 251.026 215.945 253.307 215.945ZM273.97 215.945C276.251 215.945 278.102 214.09 278.102 211.804C278.102 209.519 276.251 207.664 273.97 207.664C271.69 207.664 269.838 209.519 269.838 211.804C269.838 214.09 271.69 215.945 273.97 215.945ZM88.0157 226.299C90.2964 226.299 92.1476 224.444 92.1476 222.159C92.1476 219.873 90.2964 218.018 88.0157 218.018C85.7349 218.018 83.8837 219.873 83.8837 222.159C83.8837 224.444 85.7349 226.299 88.0157 226.299ZM108.675 226.299C110.956 226.299 112.807 224.444 112.807 222.159C112.807 219.873 110.956 218.018 108.675 218.018C106.395 218.018 104.543 219.873 104.543 222.159C104.543 224.444 106.395 226.299 108.675 226.299ZM139.668 226.299C141.949 226.299 143.8 224.444 143.8 222.159C143.8 219.873 141.949 218.018 139.668 218.018C137.388 218.018 135.536 219.873 135.536 222.159C135.536 224.444 137.388 226.299 139.668 226.299ZM149.998 226.299C152.279 226.299 154.13 224.444 154.13 222.159C154.13 219.873 152.279 218.018 149.998 218.018C147.718 218.018 145.866 219.873 145.866 222.159C145.866 224.444 147.718 226.299 149.998 226.299ZM160.332 226.299C162.612 226.299 164.464 224.444 164.464 222.159C164.464 219.873 162.612 218.018 160.332 218.018C158.051 218.018 156.2 219.873 156.2 222.159C156.2 224.444 158.051 226.299 160.332 226.299ZM180.991 226.299C183.272 226.299 185.123 224.444 185.123 222.159C185.123 219.873 183.272 218.018 180.991 218.018C178.711 218.018 176.859 219.873 176.859 222.159C176.859 224.444 178.711 226.299 180.991 226.299ZM191.325 226.299C193.605 226.299 195.457 224.444 195.457 222.159C195.457 219.873 193.605 218.018 191.325 218.018C189.044 218.018 187.193 219.873 187.193 222.159C187.193 224.444 189.044 226.299 191.325 226.299ZM201.654 226.299C203.935 226.299 205.786 224.444 205.786 222.159C205.786 219.873 203.935 218.018 201.654 218.018C199.374 218.018 197.522 219.873 197.522 222.159C197.522 224.444 199.374 226.299 201.654 226.299ZM211.984 226.299C214.265 226.299 216.116 224.444 216.116 222.159C216.116 219.873 214.265 218.018 211.984 218.018C209.704 218.018 207.852 219.873 207.852 222.159C207.852 224.444 209.704 226.299 211.984 226.299ZM253.307 226.299C255.588 226.299 257.439 224.444 257.439 222.159C257.439 219.873 255.588 218.018 253.307 218.018C251.026 218.018 249.175 219.873 249.175 222.159C249.175 224.444 251.026 226.299 253.307 226.299ZM263.64 226.299C265.921 226.299 267.772 224.444 267.772 222.159C267.772 219.873 265.921 218.018 263.64 218.018C261.36 218.018 259.509 219.873 259.509 222.159C259.509 224.444 261.36 226.299 263.64 226.299ZM273.97 226.299C276.251 226.299 278.102 224.444 278.102 222.159C278.102 219.873 276.251 218.018 273.97 218.018C271.69 218.018 269.838 219.873 269.838 222.159C269.838 224.444 271.69 226.299 273.97 226.299ZM88.0157 236.651C90.2964 236.651 92.1476 234.796 92.1476 232.51C92.1476 230.225 90.2964 228.37 88.0157 228.37C85.7349 228.37 83.8837 230.225 83.8837 232.51C83.8837 234.796 85.7349 236.651 88.0157 236.651ZM98.3456 236.651C100.626 236.651 102.477 234.796 102.477 232.51C102.477 230.225 100.626 228.37 98.3456 228.37C96.0648 228.37 94.2136 230.225 94.2136 232.51C94.2136 234.796 96.0648 236.651 98.3456 236.651ZM139.668 236.651C141.949 236.651 143.8 234.796 143.8 232.51C143.8 230.225 141.949 228.37 139.668 228.37C137.388 228.37 135.536 230.225 135.536 232.51C135.536 234.796 137.388 236.651 139.668 236.651ZM160.332 236.651C162.612 236.651 164.464 234.796 164.464 232.51C164.464 230.225 162.612 228.37 160.332 228.37C158.051 228.37 156.2 230.225 156.2 232.51C156.2 234.796 158.051 236.651 160.332 236.651ZM170.661 236.651C172.942 236.651 174.793 234.796 174.793 232.51C174.793 230.225 172.942 228.37 170.661 228.37C168.381 228.37 166.529 230.225 166.529 232.51C166.529 234.796 168.381 236.651 170.661 236.651ZM180.991 236.651C183.272 236.651 185.123 234.796 185.123 232.51C185.123 230.225 183.272 228.37 180.991 228.37C178.711 228.37 176.859 230.225 176.859 232.51C176.859 234.796 178.711 236.651 180.991 236.651ZM201.654 236.651C203.935 236.651 205.786 234.796 205.786 232.51C205.786 230.225 203.935 228.37 201.654 228.37C199.374 228.37 197.522 230.225 197.522 232.51C197.522 234.796 199.374 236.651 201.654 236.651ZM211.984 236.651C214.265 236.651 216.116 234.796 216.116 232.51C216.116 230.225 214.265 228.37 211.984 228.37C209.704 228.37 207.852 230.225 207.852 232.51C207.852 234.796 209.704 236.651 211.984 236.651ZM232.647 236.651C234.928 236.651 236.779 234.796 236.779 232.51C236.779 230.225 234.928 228.37 232.647 228.37C230.367 228.37 228.516 230.225 228.516 232.51C228.516 234.796 230.367 236.651 232.647 236.651ZM253.307 236.651C255.588 236.651 257.439 234.796 257.439 232.51C257.439 230.225 255.588 228.37 253.307 228.37C251.026 228.37 249.175 230.225 249.175 232.51C249.175 234.796 251.026 236.651 253.307 236.651ZM98.3456 247.002C100.626 247.002 102.477 245.147 102.477 242.861C102.477 240.576 100.626 238.721 98.3456 238.721C96.0648 238.721 94.2136 240.576 94.2136 242.861C94.2136 245.147 96.0648 247.002 98.3456 247.002ZM119.005 247.002C121.286 247.002 123.137 245.147 123.137 242.861C123.137 240.576 121.286 238.721 119.005 238.721C116.725 238.721 114.873 240.576 114.873 242.861C114.873 245.147 116.725 247.002 119.005 247.002ZM129.339 247.002C131.619 247.002 133.471 245.147 133.471 242.861C133.471 240.576 131.619 238.721 129.339 238.721C127.058 238.721 125.207 240.576 125.207 242.861C125.207 245.147 127.058 247.002 129.339 247.002ZM149.998 247.002C152.279 247.002 154.13 245.147 154.13 242.861C154.13 240.576 152.279 238.721 149.998 238.721C147.718 238.721 145.866 240.576 145.866 242.861C145.866 245.147 147.718 247.002 149.998 247.002ZM180.991 247.002C183.272 247.002 185.123 245.147 185.123 242.861C185.123 240.576 183.272 238.721 180.991 238.721C178.711 238.721 176.859 240.576 176.859 242.861C176.859 245.147 178.711 247.002 180.991 247.002ZM191.325 247.002C193.605 247.002 195.457 245.147 195.457 242.861C195.457 240.576 193.605 238.721 191.325 238.721C189.044 238.721 187.193 240.576 187.193 242.861C187.193 245.147 189.044 247.002 191.325 247.002ZM201.654 247.002C203.935 247.002 205.786 245.147 205.786 242.861C205.786 240.576 203.935 238.721 201.654 238.721C199.374 238.721 197.522 240.576 197.522 242.861C197.522 245.147 199.374 247.002 201.654 247.002ZM211.984 247.002C214.265 247.002 216.116 245.147 216.116 242.861C216.116 240.576 214.265 238.721 211.984 238.721C209.704 238.721 207.852 240.576 207.852 242.861C207.852 245.147 209.704 247.002 211.984 247.002ZM253.307 247.002C255.588 247.002 257.439 245.147 257.439 242.861C257.439 240.576 255.588 238.721 253.307 238.721C251.026 238.721 249.175 240.576 249.175 242.861C249.175 245.147 251.026 247.002 253.307 247.002ZM263.64 247.002C265.921 247.002 267.772 245.147 267.772 242.861C267.772 240.576 265.921 238.721 263.64 238.721C261.36 238.721 259.509 240.576 259.509 242.861C259.509 245.147 261.36 247.002 263.64 247.002ZM294.633 247.002C296.914 247.002 298.765 245.147 298.765 242.861C298.765 240.576 296.914 238.721 294.633 238.721C292.353 238.721 290.502 240.576 290.502 242.861C290.502 245.147 292.353 247.002 294.633 247.002ZM98.3456 257.357C100.626 257.357 102.477 255.502 102.477 253.216C102.477 250.931 100.626 249.076 98.3456 249.076C96.0648 249.076 94.2136 250.931 94.2136 253.216C94.2136 255.502 96.0648 257.357 98.3456 257.357ZM108.675 257.357C110.956 257.357 112.807 255.502 112.807 253.216C112.807 250.931 110.956 249.076 108.675 249.076C106.395 249.076 104.543 250.931 104.543 253.216C104.543 255.502 106.395 257.357 108.675 257.357ZM119.005 257.357C121.286 257.357 123.137 255.502 123.137 253.216C123.137 250.931 121.286 249.076 119.005 249.076C116.725 249.076 114.873 250.931 114.873 253.216C114.873 255.502 116.725 257.357 119.005 257.357ZM149.998 257.357C152.279 257.357 154.13 255.502 154.13 253.216C154.13 250.931 152.279 249.076 149.998 249.076C147.718 249.076 145.866 250.931 145.866 253.216C145.866 255.502 147.718 257.357 149.998 257.357ZM160.332 257.357C162.612 257.357 164.464 255.502 164.464 253.216C164.464 250.931 162.612 249.076 160.332 249.076C158.051 249.076 156.2 250.931 156.2 253.216C156.2 255.502 158.051 257.357 160.332 257.357ZM180.991 257.357C183.272 257.357 185.123 255.502 185.123 253.216C185.123 250.931 183.272 249.076 180.991 249.076C178.711 249.076 176.859 250.931 176.859 253.216C176.859 255.502 178.711 257.357 180.991 257.357ZM201.654 257.357C203.935 257.357 205.786 255.502 205.786 253.216C205.786 250.931 203.935 249.076 201.654 249.076C199.374 249.076 197.522 250.931 197.522 253.216C197.522 255.502 199.374 257.357 201.654 257.357ZM211.984 257.357C214.265 257.357 216.116 255.502 216.116 253.216C216.116 250.931 214.265 249.076 211.984 249.076C209.704 249.076 207.852 250.931 207.852 253.216C207.852 255.502 209.704 257.357 211.984 257.357ZM222.314 257.357C224.595 257.357 226.446 255.502 226.446 253.216C226.446 250.931 224.595 249.076 222.314 249.076C220.033 249.076 218.182 250.931 218.182 253.216C218.182 255.502 220.033 257.357 222.314 257.357ZM232.647 257.357C234.928 257.357 236.779 255.502 236.779 253.216C236.779 250.931 234.928 249.076 232.647 249.076C230.367 249.076 228.516 250.931 228.516 253.216C228.516 255.502 230.367 257.357 232.647 257.357ZM242.977 257.357C245.258 257.357 247.109 255.502 247.109 253.216C247.109 250.931 245.258 249.076 242.977 249.076C240.697 249.076 238.845 250.931 238.845 253.216C238.845 255.502 240.697 257.357 242.977 257.357ZM253.307 257.357C255.588 257.357 257.439 255.502 257.439 253.216C257.439 250.931 255.588 249.076 253.307 249.076C251.026 249.076 249.175 250.931 249.175 253.216C249.175 255.502 251.026 257.357 253.307 257.357ZM284.3 257.357C286.581 257.357 288.432 255.502 288.432 253.216C288.432 250.931 286.581 249.076 284.3 249.076C282.019 249.076 280.168 250.931 280.168 253.216C280.168 255.502 282.019 257.357 284.3 257.357ZM294.633 257.357C296.914 257.357 298.765 255.502 298.765 253.216C298.765 250.931 296.914 249.076 294.633 249.076C292.353 249.076 290.502 250.931 290.502 253.216C290.502 255.502 292.353 257.357 294.633 257.357ZM98.3456 267.708C100.626 267.708 102.477 265.853 102.477 263.567C102.477 261.282 100.626 259.427 98.3456 259.427C96.0648 259.427 94.2136 261.282 94.2136 263.567C94.2136 265.853 96.0648 267.708 98.3456 267.708ZM108.675 267.708C110.956 267.708 112.807 265.853 112.807 263.567C112.807 261.282 110.956 259.427 108.675 259.427C106.395 259.427 104.543 261.282 104.543 263.567C104.543 265.853 106.395 267.708 108.675 267.708ZM119.005 267.708C121.286 267.708 123.137 265.853 123.137 263.567C123.137 261.282 121.286 259.427 119.005 259.427C116.725 259.427 114.873 261.282 114.873 263.567C114.873 265.853 116.725 267.708 119.005 267.708ZM139.668 267.708C141.949 267.708 143.8 265.853 143.8 263.567C143.8 261.282 141.949 259.427 139.668 259.427C137.388 259.427 135.536 261.282 135.536 263.567C135.536 265.853 137.388 267.708 139.668 267.708ZM191.325 267.708C193.605 267.708 195.457 265.853 195.457 263.567C195.457 261.282 193.605 259.427 191.325 259.427C189.044 259.427 187.193 261.282 187.193 263.567C187.193 265.853 189.044 267.708 191.325 267.708ZM201.654 267.708C203.935 267.708 205.786 265.853 205.786 263.567C205.786 261.282 203.935 259.427 201.654 259.427C199.374 259.427 197.522 261.282 197.522 263.567C197.522 265.853 199.374 267.708 201.654 267.708ZM211.984 267.708C214.265 267.708 216.116 265.853 216.116 263.567C216.116 261.282 214.265 259.427 211.984 259.427C209.704 259.427 207.852 261.282 207.852 263.567C207.852 265.853 209.704 267.708 211.984 267.708ZM242.977 267.708C245.258 267.708 247.109 265.853 247.109 263.567C247.109 261.282 245.258 259.427 242.977 259.427C240.697 259.427 238.845 261.282 238.845 263.567C238.845 265.853 240.697 267.708 242.977 267.708ZM284.3 267.708C286.581 267.708 288.432 265.853 288.432 263.567C288.432 261.282 286.581 259.427 284.3 259.427C282.019 259.427 280.168 261.282 280.168 263.567C280.168 265.853 282.019 267.708 284.3 267.708ZM119.005 278.059C121.286 278.059 123.137 276.204 123.137 273.919C123.137 271.633 121.286 269.778 119.005 269.778C116.725 269.778 114.873 271.633 114.873 273.919C114.873 276.204 116.725 278.059 119.005 278.059ZM129.339 278.059C131.619 278.059 133.471 276.204 133.471 273.919C133.471 271.633 131.619 269.778 129.339 269.778C127.058 269.778 125.207 271.633 125.207 273.919C125.207 276.204 127.058 278.059 129.339 278.059ZM160.332 278.059C162.612 278.059 164.464 276.204 164.464 273.919C164.464 271.633 162.612 269.778 160.332 269.778C158.051 269.778 156.2 271.633 156.2 273.919C156.2 276.204 158.051 278.059 160.332 278.059ZM170.661 278.059C172.942 278.059 174.793 276.204 174.793 273.919C174.793 271.633 172.942 269.778 170.661 269.778C168.381 269.778 166.529 271.633 166.529 273.919C166.529 276.204 168.381 278.059 170.661 278.059ZM180.991 278.059C183.272 278.059 185.123 276.204 185.123 273.919C185.123 271.633 183.272 269.778 180.991 269.778C178.711 269.778 176.859 271.633 176.859 273.919C176.859 276.204 178.711 278.059 180.991 278.059ZM201.654 278.059C203.935 278.059 205.786 276.204 205.786 273.919C205.786 271.633 203.935 269.778 201.654 269.778C199.374 269.778 197.522 271.633 197.522 273.919C197.522 276.204 199.374 278.059 201.654 278.059ZM211.984 278.059C214.265 278.059 216.116 276.204 216.116 273.919C216.116 271.633 214.265 269.778 211.984 269.778C209.704 269.778 207.852 271.633 207.852 273.919C207.852 276.204 209.704 278.059 211.984 278.059ZM222.314 278.059C224.595 278.059 226.446 276.204 226.446 273.919C226.446 271.633 224.595 269.778 222.314 269.778C220.033 269.778 218.182 271.633 218.182 273.919C218.182 276.204 220.033 278.059 222.314 278.059ZM232.647 278.059C234.928 278.059 236.779 276.204 236.779 273.919C236.779 271.633 234.928 269.778 232.647 269.778C230.367 269.778 228.516 271.633 228.516 273.919C228.516 276.204 230.367 278.059 232.647 278.059ZM242.977 278.059C245.258 278.059 247.109 276.204 247.109 273.919C247.109 271.633 245.258 269.778 242.977 269.778C240.697 269.778 238.845 271.633 238.845 273.919C238.845 276.204 240.697 278.059 242.977 278.059ZM253.307 278.059C255.588 278.059 257.439 276.204 257.439 273.919C257.439 271.633 255.588 269.778 253.307 269.778C251.026 269.778 249.175 271.633 249.175 273.919C249.175 276.204 251.026 278.059 253.307 278.059ZM263.64 278.059C265.921 278.059 267.772 276.204 267.772 273.919C267.772 271.633 265.921 269.778 263.64 269.778C261.36 269.778 259.509 271.633 259.509 273.919C259.509 276.204 261.36 278.059 263.64 278.059ZM284.3 278.059C286.581 278.059 288.432 276.204 288.432 273.919C288.432 271.633 286.581 269.778 284.3 269.778C282.019 269.778 280.168 271.633 280.168 273.919C280.168 276.204 282.019 278.059 284.3 278.059ZM88.0157 288.411C90.2964 288.411 92.1476 286.556 92.1476 284.27C92.1476 281.985 90.2964 280.13 88.0157 280.13C85.7349 280.13 83.8837 281.985 83.8837 284.27C83.8837 286.556 85.7349 288.411 88.0157 288.411ZM119.005 288.411C121.286 288.411 123.137 286.556 123.137 284.27C123.137 281.985 121.286 280.13 119.005 280.13C116.725 280.13 114.873 281.985 114.873 284.27C114.873 286.556 116.725 288.411 119.005 288.411ZM170.661 288.411C172.942 288.411 174.793 286.556 174.793 284.27C174.793 281.985 172.942 280.13 170.661 280.13C168.381 280.13 166.529 281.985 166.529 284.27C166.529 286.556 168.381 288.411 170.661 288.411ZM211.984 288.411C214.265 288.411 216.116 286.556 216.116 284.27C216.116 281.985 214.265 280.13 211.984 280.13C209.704 280.13 207.852 281.985 207.852 284.27C207.852 286.556 209.704 288.411 211.984 288.411ZM222.314 288.411C224.595 288.411 226.446 286.556 226.446 284.27C226.446 281.985 224.595 280.13 222.314 280.13C220.033 280.13 218.182 281.985 218.182 284.27C218.182 286.556 220.033 288.411 222.314 288.411ZM253.307 288.411C255.588 288.411 257.439 286.556 257.439 284.27C257.439 281.985 255.588 280.13 253.307 280.13C251.026 280.13 249.175 281.985 249.175 284.27C249.175 286.556 251.026 288.411 253.307 288.411ZM263.64 288.411C265.921 288.411 267.772 286.556 267.772 284.27C267.772 281.985 265.921 280.13 263.64 280.13C261.36 280.13 259.509 281.985 259.509 284.27C259.509 286.556 261.36 288.411 263.64 288.411ZM273.97 288.411C276.251 288.411 278.102 286.556 278.102 284.27C278.102 281.985 276.251 280.13 273.97 280.13C271.69 280.13 269.838 281.985 269.838 284.27C269.838 286.556 271.69 288.411 273.97 288.411ZM294.633 288.411C296.914 288.411 298.765 286.556 298.765 284.27C298.765 281.985 296.914 280.13 294.633 280.13C292.353 280.13 290.502 281.985 290.502 284.27C290.502 286.556 292.353 288.411 294.633 288.411ZM119.005 298.765C121.286 298.765 123.137 296.91 123.137 294.625C123.137 292.339 121.286 290.484 119.005 290.484C116.725 290.484 114.873 292.339 114.873 294.625C114.873 296.91 116.725 298.765 119.005 298.765ZM160.332 298.765C162.612 298.765 164.464 296.91 164.464 294.625C164.464 292.339 162.612 290.484 160.332 290.484C158.051 290.484 156.2 292.339 156.2 294.625C156.2 296.91 158.051 298.765 160.332 298.765ZM180.991 298.765C183.272 298.765 185.123 296.91 185.123 294.625C185.123 292.339 183.272 290.484 180.991 290.484C178.711 290.484 176.859 292.339 176.859 294.625C176.859 296.91 178.711 298.765 180.991 298.765ZM201.654 298.765C203.935 298.765 205.786 296.91 205.786 294.625C205.786 292.339 203.935 290.484 201.654 290.484C199.374 290.484 197.522 292.339 197.522 294.625C197.522 296.91 199.374 298.765 201.654 298.765ZM211.984 298.765C214.265 298.765 216.116 296.91 216.116 294.625C216.116 292.339 214.265 290.484 211.984 290.484C209.704 290.484 207.852 292.339 207.852 294.625C207.852 296.91 209.704 298.765 211.984 298.765ZM222.314 298.765C224.595 298.765 226.446 296.91 226.446 294.625C226.446 292.339 224.595 290.484 222.314 290.484C220.033 290.484 218.182 292.339 218.182 294.625C218.182 296.91 220.033 298.765 222.314 298.765ZM232.647 298.765C234.928 298.765 236.779 296.91 236.779 294.625C236.779 292.339 234.928 290.484 232.647 290.484C230.367 290.484 228.516 292.339 228.516 294.625C228.516 296.91 230.367 298.765 232.647 298.765ZM253.307 298.765C255.588 298.765 257.439 296.91 257.439 294.625C257.439 292.339 255.588 290.484 253.307 290.484C251.026 290.484 249.175 292.339 249.175 294.625C249.175 296.91 251.026 298.765 253.307 298.765ZM273.97 298.765C276.251 298.765 278.102 296.91 278.102 294.625C278.102 292.339 276.251 290.484 273.97 290.484C271.69 290.484 269.838 292.339 269.838 294.625C269.838 296.91 271.69 298.765 273.97 298.765Z" fill="white"/>
<defs>
<linearGradient id="paint0_linear_10854_871" x1="4.90275e-06" y1="115.179" x2="225" y2="252.679" gradientUnits="userSpaceOnUse">
<stop stop-color="#45CDFF"/>
<stop offset="1" stop-color="#E481FF"/>
</linearGradient>
</defs>
</svg>
