<svg width="419" height="177" viewBox="0 0 419 177" fill="none" xmlns="http://www.w3.org/2000/svg">
<path d="M26.8633 126.99H2.11219V171.899H26.8503C34.3805 171.899 40.5003 165.689 40.5003 158.159C40.5003 154.833 39.2971 151.767 37.3175 149.399C39.31 147.032 40.5003 143.978 40.5003 140.64C40.5003 133.11 34.3805 126.99 26.8503 126.99H26.8633ZM26.8633 154.303C28.9852 154.303 30.7189 156.037 30.7189 158.159C30.7189 160.281 28.9852 162.014 26.8633 162.014H11.9195V136.784H26.8633C28.9852 136.784 30.7189 138.518 30.7189 140.64C30.7189 142.762 28.9852 144.496 26.8633 144.496H17.8582V154.29H26.8633V154.303ZM78.6168 139.98L85.5388 133.058C76.4949 124.014 61.7839 124.014 52.74 133.058C43.6961 142.102 43.6961 156.813 52.74 165.857C57.2555 170.372 63.1942 172.637 69.1329 172.637C75.0716 172.637 81.0104 170.372 85.5258 165.857L78.6038 158.935C73.3767 164.149 64.8892 164.162 59.662 158.935C54.4349 153.708 54.4349 145.207 59.662 139.993C64.8892 134.766 73.3767 134.766 78.6038 139.993L78.6168 139.98ZM99.978 126.99H90.1837V171.899H128.171V162.105H99.978V154.342H128.171V144.547H99.978V126.99ZM377.739 72.4937H370.558V82.288H377.739C382.423 82.288 386.226 86.0919 386.226 90.7756C386.226 95.4593 382.423 99.2632 377.739 99.2632H365.732V64.1484H355.938V109.109H377.739C387.818 109.109 396.021 100.868 396.021 90.7756C396.021 80.6837 387.818 72.4937 377.739 72.4937ZM275.733 64.1484H265.938V110.338L295.968 84.2935V109.109H305.763V62.8417L275.733 88.8866V64.1614V64.1484ZM63.66 109.821C69.5987 109.821 75.5374 107.557 80.0529 103.041C84.9695 98.1246 87.4019 91.3449 86.7421 84.4229C86.2375 79.0793 83.8568 74.0463 80.0529 70.2424C71.009 61.1985 56.2981 61.1985 47.2542 70.2424C38.2102 79.2863 38.2102 93.9972 47.2542 103.041C51.7826 107.57 57.7084 109.821 63.6471 109.821H63.66ZM54.1891 77.1644C56.8027 74.5509 60.2313 73.2441 63.66 73.2441C67.0887 73.2441 70.5173 74.5509 73.1309 77.1644C75.3563 79.3898 76.6889 82.2233 76.9995 85.3544C77.3876 89.3524 75.9773 93.2727 73.1309 96.1062C67.9167 101.333 59.4162 101.333 54.1891 96.1062C48.962 90.8791 48.962 82.3915 54.1891 77.1644ZM23.1888 109.821C29.1275 109.821 35.0662 107.557 39.5817 103.041L32.6597 96.1191C27.4455 101.346 18.945 101.346 13.7179 96.1191C8.49081 90.892 8.49081 82.4045 13.7179 77.1774C18.945 71.9503 27.4455 71.9632 32.6597 77.1774L39.5817 70.2553C30.5378 61.2114 15.8269 61.2114 6.78294 70.2553C-2.26098 79.2993 -2.26098 94.0102 6.78294 103.054C11.2984 107.57 17.2371 109.834 23.1759 109.834L23.1888 109.821ZM168.59 109.109H179.898L184.789 100.648H205.374L210.265 109.109H221.573L195.088 63.2298L168.603 109.109H168.59ZM189.887 91.8107L195.075 82.8185L200.263 91.8107H189.874H189.887ZM247.864 82.0163H229.142V64.1355H219.347V95.9121L226.942 109.096H229.142V91.8107H247.864V109.096H257.658V64.1355H247.864V82.0163ZM311.934 74.0463H325.869V109.096H335.663V74.0463H349.598V64.1355H311.934V74.0463ZM130.422 64.1484H118.04L106.913 78.6265L95.786 64.1484H83.404L100.715 86.6353L83.3393 109.109H95.7213L106.9 94.6442L118.079 109.109H130.461L113.085 86.6353L130.396 64.1484H130.422ZM174.49 82.5339C174.49 72.4549 166.287 64.1355 156.208 64.1355H134.407V109.096H144.201V74.0463H156.208C160.892 74.0463 164.696 77.8502 164.696 82.5339C164.696 87.2175 160.892 91.0214 156.208 91.0214H149.027V100.816H156.208C166.287 100.816 174.49 92.6128 174.49 82.5339ZM118.338 136.836H128.171V127.003H118.338V136.836ZM104.248 126.99V136.823H114.081V126.99H104.248Z" fill="url(#paint0_linear_6_4)"/>
<path d="M34.6263 0.918624H2.07338V45.8795H11.8677V10.8294H34.6263V0.918624ZM230.837 17.6738L226.049 9.40619H216.048L220.835 17.6738H230.837ZM24.9872 45.8795H36.2954L41.1861 37.4178H61.771L66.6617 45.8795H77.9698L51.4721 0L24.9872 45.8795ZM46.2838 28.5809L51.4721 19.5887L56.6604 28.5809H46.2708H46.2838ZM108.634 0.918624H79.4966V45.8795H89.2909V10.8294H108.634C113.317 10.8294 117.121 14.6333 117.121 19.317C117.121 24.0007 113.317 27.8046 108.634 27.8046H94.6862V37.5989H108.634C118.713 37.5989 126.916 29.396 126.916 19.317C126.916 9.238 118.713 0.918624 108.634 0.918624ZM176.198 36.0075L181.852 45.8018L186.691 37.4178H207.276L212.167 45.8795H223.475L196.99 0L176.198 36.0075ZM191.802 28.5809L196.99 19.5887L202.178 28.5809H191.789H191.802ZM235.74 26.1355H225.739L230.526 34.4031H240.527L235.74 26.1355ZM122.245 45.8795H133.553L148.73 19.5887L158.938 37.2754H144.887L139.828 45.8795H175.215L148.743 0L122.258 45.8795H122.245Z" fill="white"/>
<path d="M344.378 145.94C348.515 145.94 351.556 144.265 353.438 140.979L353.592 140.721L350.049 138.608L349.894 138.84C348.541 140.837 346.814 141.739 344.314 141.739C341.054 141.739 338.85 139.523 338.85 136.224C338.85 132.925 340.989 130.708 344.314 130.708C346.814 130.708 348.541 131.597 349.894 133.608L350.049 133.84L353.592 131.726L353.438 131.469C351.569 128.183 348.515 126.507 344.378 126.507C338.489 126.507 334.365 130.515 334.365 136.237C334.365 141.958 338.386 145.966 344.378 145.966V145.94ZM194.235 141.752C191.413 141.752 189.055 141.069 186.812 139.626L186.555 139.458L184.454 142.989L184.686 143.157C187.547 145.167 190.163 145.94 194.029 145.94C197.457 145.94 199.892 145.348 201.465 144.123C203.101 142.848 203.939 141.275 203.939 139.42C203.939 137.474 203.204 136.018 201.748 135.09C202.431 134.445 202.805 133.466 202.805 132.332C202.805 130.528 202.109 129.11 200.73 128.118C199.235 127.023 196.967 126.469 193.99 126.469C190.562 126.469 187.985 127.242 185.369 129.059L185.137 129.213L187.057 132.654L187.315 132.487C189.544 131.056 191.052 130.644 194.042 130.644C196.851 130.644 198.269 131.25 198.269 132.461C198.269 133.234 197.908 133.595 197.122 133.595H189.905V137.783H197.122C199.029 137.783 199.403 138.35 199.403 139.265C199.403 140.94 197.702 141.765 194.196 141.765L194.235 141.752ZM163.784 139.059C163.784 135.451 161.09 132.835 157.392 132.835H150.485V131.134H161.619V126.894H146V145.476H157.392C160.974 145.476 163.784 142.654 163.784 139.059ZM150.485 141.237V137.036H157.083C158.552 137.036 159.299 137.719 159.299 139.072C159.299 140.515 158.565 141.237 157.108 141.237H150.485ZM322.329 145.94C328.051 145.94 332.368 141.752 332.368 136.211C332.368 130.67 328.051 126.481 322.329 126.481C316.607 126.481 312.29 130.67 312.29 136.211C312.29 141.752 316.607 145.94 322.329 145.94ZM322.329 130.554C325.628 130.554 327.858 132.822 327.858 136.198C327.858 139.574 325.641 141.842 322.329 141.842C319.017 141.842 316.801 139.574 316.801 136.198C316.801 132.822 319.017 130.554 322.329 130.554ZM232.65 131.108H241.362V145.476H245.885V126.894H228.166V145.476H232.65V131.108ZM280.434 145.94C284.571 145.94 287.612 144.265 289.494 140.979L289.648 140.721L286.105 138.608L285.95 138.84C284.597 140.837 282.87 141.739 280.37 141.739C277.11 141.739 274.906 139.523 274.906 136.224C274.906 132.925 277.045 130.708 280.37 130.708C282.87 130.708 284.597 131.597 285.95 133.608L286.105 133.84L289.648 131.726L289.494 131.469C287.625 128.183 284.571 126.507 280.434 126.507C274.545 126.507 270.421 130.515 270.421 136.237C270.421 141.958 274.442 145.966 280.434 145.966V145.94ZM215.807 145.94C221.529 145.94 225.846 141.752 225.846 136.211C225.846 130.67 221.529 126.481 215.807 126.481C210.086 126.481 205.769 130.67 205.769 136.211C205.769 141.752 210.086 145.94 215.807 145.94ZM215.807 130.554C219.106 130.554 221.336 132.822 221.336 136.198C221.336 139.574 219.119 141.842 215.807 141.842C212.496 141.842 210.279 139.574 210.279 136.198C210.279 132.822 212.496 130.554 215.807 130.554ZM253.643 142.745H263.978L265.112 145.476H269.893L262.341 127.074L262.264 126.894H255.499L247.844 145.051L247.663 145.476H252.522L253.656 142.745H253.643ZM258.334 131.108H259.287L262.2 138.595H255.331L258.334 131.108ZM309.984 145.476V126.894H305.46V133.75H296.234V126.894H291.71V145.476H296.234V138.002H305.46V145.476H309.984ZM354.714 131.146H361.788V145.489H366.312V131.146H373.386V126.894H354.714V131.146ZM385.539 130.992H379.83V126.894H375.307V145.476H385.539C389.856 145.476 393 142.384 393 138.118C393 133.853 389.933 130.992 385.539 130.992ZM385.255 141.172H379.83V135.206H385.255C387.459 135.206 388.49 136.134 388.49 138.118C388.49 140.103 387.433 141.159 385.255 141.159V141.172ZM170.871 141.134V138.157H181.529V133.878H170.871V131.172H182.727V126.894H166.361V145.476H183.178V141.134H170.871ZM150.485 164.948V152.977H146V171.559H150.266L160.15 159.652V171.559H164.634V152.977H160.407L150.497 164.948H150.485ZM297.29 152.977H290.525L282.87 171.134L282.69 171.559H287.548L288.682 168.827H299.017L300.151 171.559H304.932L297.368 153.157L297.29 152.977ZM290.357 164.678L293.36 157.191H294.313L297.226 164.678H290.357ZM353.786 164.948V152.977H349.301V171.559H353.567L363.451 159.652V171.559H367.935V152.977H363.708L353.799 164.948H353.786ZM332.587 164.948V152.977H328.102V171.559H332.368L342.252 159.652V171.559H346.737V152.977H342.497L332.587 164.948ZM324.339 152.977H319.816V167.281H311.221V152.977H306.698V171.559H321.904L322.187 175H326.144V167.268H324.314V152.964L324.339 152.977ZM224.983 152.551C219.261 152.551 214.944 156.74 214.944 162.281C214.944 167.822 219.261 172.01 224.983 172.01C230.704 172.01 235.022 167.822 235.022 162.281C235.022 156.74 230.704 152.551 224.983 152.551ZM224.983 167.938C221.684 167.938 219.454 165.67 219.454 162.294C219.454 158.917 221.671 156.649 224.983 156.649C228.295 156.649 230.511 158.917 230.511 162.294C230.511 165.67 228.295 167.938 224.983 167.938ZM269.159 165.799L263.166 152.977H257.432V171.559H261.826V159.626L267.187 171.559H270.86L276.452 159.587V171.559H280.911V152.977H275.409L269.159 165.799ZM180.936 159.832H171.709V152.977H167.186V171.559H171.709V164.085H180.936V171.559H185.459V152.977H180.936V159.832ZM205.794 154.922H202.573V152.977H198.088V154.922H194.866C190.537 154.922 187.405 158.015 187.405 162.281C187.405 166.546 190.472 169.51 194.866 169.51H198.088V171.559H202.573V169.51H205.794C210.189 169.51 213.256 166.533 213.256 162.281C213.256 158.028 210.111 154.922 205.794 154.922ZM198.075 165.206H195.008C193.037 165.206 191.903 164.136 191.903 162.255C191.903 159.768 193.591 159.24 195.008 159.24H198.075V165.206ZM205.64 165.206H202.573V159.24H205.64C207.057 159.24 208.745 159.768 208.745 162.255C208.745 164.124 207.611 165.206 205.64 165.206ZM237.328 152.977V171.559H241.852V167.564H247.883C252.277 167.564 255.344 164.588 255.344 160.335C255.344 156.082 252.2 152.977 247.883 152.977H237.328ZM247.715 163.247H241.852V157.281H247.715C249.635 157.281 250.821 158.453 250.821 160.322C250.821 162.191 249.661 163.234 247.715 163.234V163.247Z" fill="white"/>
<defs>
<linearGradient id="paint0_linear_6_4" x1="41" y1="63" x2="215" y2="209" gradientUnits="userSpaceOnUse">
<stop stop-color="#5CCDFF"/>
<stop offset="1" stop-color="#C478FF"/>
</linearGradient>
</defs>
</svg>
