<svg width="402" height="135" viewBox="0 0 402 135" fill="none" xmlns="http://www.w3.org/2000/svg">
<path d="M197.309 34.5442C196.169 35.1054 194.72 35.3763 192.942 35.3763C191.551 35.3763 190.083 35.2021 188.575 34.8151C187.068 34.428 185.638 33.9249 184.305 33.2282C182.972 32.5509 181.889 31.7574 181.059 30.8285L176.035 38.763C178.121 40.5822 180.653 41.9562 183.667 42.9044C186.662 43.8527 189.773 44.3365 192.962 44.3365C196.15 44.3365 199.222 43.7753 201.696 42.6335C204.169 41.5111 206.082 39.9242 207.435 37.9115C208.787 35.8795 209.464 33.5572 209.464 30.9059C209.464 27.9256 208.517 25.4872 206.604 23.61C204.691 21.7135 201.599 20.1459 197.309 18.8687L194.044 17.901C192.556 17.4753 191.358 17.0882 190.488 16.7399C189.619 16.3915 189 16.0239 188.614 15.6368C188.247 15.2498 188.054 14.7659 188.054 14.1854C188.054 13.508 188.285 12.9081 188.749 12.3856C189.213 11.8631 189.889 11.476 190.74 11.1664C191.59 10.8567 192.614 10.7213 193.754 10.7213C195.049 10.7213 196.343 10.8954 197.638 11.2244C198.913 11.5728 200.111 12.0372 201.174 12.6178C202.256 13.2177 203.145 13.9144 203.879 14.7079L209.077 6.96687C207.396 5.34126 205.193 4.04465 202.449 3.13508C199.705 2.20616 196.73 1.7417 193.541 1.7417C191.281 1.7417 189.194 2.07069 187.261 2.70932C185.329 3.34796 183.648 4.25754 182.218 5.41869C180.788 6.57984 179.687 7.95386 178.894 9.52141C178.102 11.089 177.716 12.792 177.716 14.6498C177.716 17.5527 178.663 20.0492 180.537 22.1199C182.411 24.1906 185.503 25.8356 189.831 27.0354L193.097 27.945C195.377 28.5449 196.923 29.1642 197.773 29.7641C198.623 30.3834 199.049 31.1575 199.049 32.0864C199.049 33.1315 198.488 33.9443 197.348 34.5055L197.309 34.5442ZM217.154 38.2405C219.125 40.1757 221.425 41.6659 224.091 42.7496C226.758 43.8334 229.676 44.3752 232.845 44.3752C236.014 44.3752 238.932 43.8334 241.579 42.7496C244.226 41.6659 246.545 40.1564 248.516 38.2405C250.487 36.3052 252.013 34.0604 253.115 31.4671C254.216 28.8739 254.757 26.0678 254.757 23.0488C254.757 20.0298 254.216 17.2817 253.115 14.7079C252.013 12.134 250.487 9.86975 248.516 7.91515C246.545 5.96055 244.226 4.45104 241.579 3.3673C238.932 2.28356 236.014 1.7417 232.845 1.7417C229.676 1.7417 226.758 2.28357 224.091 3.34796C221.425 4.41235 219.106 5.92185 217.154 7.83775C215.183 9.773 213.676 12.0179 212.594 14.6111C211.512 17.2044 210.971 20.0104 210.971 23.0488C210.971 26.0871 211.512 28.8739 212.594 31.4671C213.676 34.0604 215.203 36.3052 217.154 38.2405ZM223.009 18.4042C223.531 17.0108 224.265 15.8303 225.212 14.8627C226.159 13.8951 227.299 13.1403 228.594 12.6178C229.888 12.0953 231.318 11.8244 232.845 11.8244C234.912 11.8244 236.729 12.2888 238.333 13.1984C239.936 14.1079 241.192 15.4046 242.101 17.0882C243.009 18.7719 243.473 20.7652 243.473 23.0681C243.473 24.7712 243.202 26.3194 242.68 27.7127C242.159 29.0868 241.424 30.2866 240.458 31.2542C239.511 32.2412 238.391 32.996 237.096 33.5185C235.801 34.041 234.371 34.3119 232.825 34.3119C230.758 34.3119 228.942 33.8475 227.338 32.9379C225.753 32.0283 224.497 30.7317 223.57 29.0481C222.661 27.3644 222.198 25.3711 222.198 23.0681C222.198 21.3458 222.449 19.7976 222.971 18.4042H223.009ZM285.79 33.6926H269.868V2.61256H259.144V43.5044H285.79V33.6926ZM297.075 42.0916C299.703 43.6205 302.969 44.3752 306.853 44.3752C310.737 44.3752 314.002 43.6011 316.65 42.0723C319.297 40.5434 321.287 38.4147 322.64 35.7053C323.992 32.996 324.669 29.8996 324.669 26.3968V2.63193H313.886V26.8999C313.886 29.4158 313.268 31.2736 312.051 32.4928C310.833 33.712 309.094 34.3119 306.853 34.3119C304.611 34.3119 302.891 33.712 301.655 32.4928C300.418 31.2736 299.8 29.4158 299.8 26.8999V2.63193H289.075V26.3968C289.075 29.9189 289.752 33.0347 291.104 35.744C292.457 38.4534 294.447 40.5628 297.075 42.0916ZM340.069 43.5044L347.006 30.8865L354.04 43.5044H367.103L354.774 22.894L366.871 2.63193H354.272L347.451 14.5144L340.746 2.63193H327.799L339.78 22.7198L327.335 43.5044H340.069ZM399.662 34.0991H380.687V26.8806H396.223V18.3461H380.687V11.9018H399.43V2.61256H369.943V43.5044H399.662V34.0991ZM231.492 92.8726H398.928V89.0988H231.492V92.8726ZM358.929 117.179C361.808 116.308 364.281 113.696 364.281 109.806C364.281 104.91 360.668 101.484 353.905 101.484H337.364V133.861H354.021C361.248 133.861 364.938 130.3 364.938 125.075C364.938 121.398 362.33 117.973 358.91 117.16L358.929 117.179ZM342.407 105.916H353.924C357.267 105.916 359.141 107.735 359.141 110.541C359.141 113.096 357.344 115.031 353.924 115.031H342.407V105.916ZM354.04 129.449H342.388V119.463H354.04C357.789 119.463 359.721 121.882 359.721 124.495C359.721 127.572 357.576 129.449 354.04 129.449ZM245.675 100.691C235.84 100.691 229.676 108.258 229.676 117.644C229.676 127.03 235.84 134.674 245.675 134.674C255.511 134.674 261.675 127.03 261.675 117.644C261.675 108.258 255.511 100.691 245.675 100.691ZM245.675 130.184C238.777 130.184 234.893 124.282 234.893 117.644C234.893 111.006 238.777 105.181 245.675 105.181C252.574 105.181 256.38 111.083 256.38 117.644C256.38 124.204 252.574 130.184 245.675 130.184ZM284.361 105.181C287.703 105.181 290.447 106.458 292.592 109.4L295.935 106.323C293.462 103.11 289.984 100.691 284.09 100.691C274.448 100.691 267.955 108.064 267.955 117.644C267.955 127.223 274.448 134.674 284.09 134.674C289.984 134.674 293.462 132.255 295.935 129.042L292.592 125.965C290.447 128.849 287.703 130.184 284.361 130.184C277.462 130.184 273.192 124.824 273.192 117.644C273.192 110.464 277.481 105.181 284.361 105.181ZM331.355 101.504H324.997L307.993 118.727V101.504H302.969V133.88H307.993V124.63L313.345 119.327L324.997 133.88H331.413L317.017 116.192L331.335 101.504H331.355ZM386.252 100.691C380.957 100.691 376.822 102.433 373.344 106.052L375.682 109.535C378.561 106.458 381.711 105.045 385.595 105.045C390.271 105.045 393.769 107.522 393.769 111.877V117.702C391.16 114.683 387.469 113.27 383.064 113.27C377.576 113.27 371.759 116.695 371.759 123.933C371.759 131.171 377.576 134.655 383.064 134.655C387.411 134.655 391.102 133.106 393.769 130.165V133.842H398.793V111.586C398.793 103.749 393.112 100.652 386.271 100.652L386.252 100.691ZM393.749 127.03C391.817 129.72 388.397 131.055 384.841 131.055C380.165 131.055 376.88 128.113 376.88 124.011C376.88 119.908 380.165 116.908 384.841 116.908C388.397 116.908 391.798 118.244 393.749 120.934V127.03ZM199.416 123.217L185.561 89.1763H177.6V133.88H183.145V96.685L198.276 133.88H200.556L215.744 96.685V133.88H221.29V89.1763H213.328L199.416 123.217ZM178.006 57.1866V74.4877H182.102V67.3467H183.088L188.633 74.4877H193.909L186.682 65.5275L193.078 57.1866H187.976L183.145 63.5923H182.102V57.1866H178.006ZM203.763 56.8189C202.43 56.8189 201.213 57.0511 200.092 57.4962C198.971 57.9413 197.986 58.58 197.155 59.3928C196.324 60.2056 195.686 61.1732 195.223 62.2569C194.759 63.36 194.546 64.5405 194.546 65.8371C194.546 67.1338 194.778 68.2949 195.223 69.398C195.667 70.5011 196.324 71.4494 197.155 72.2622C197.986 73.075 198.971 73.7136 200.092 74.1781C201.213 74.6425 202.43 74.8554 203.763 74.8554C205.097 74.8554 206.314 74.6232 207.435 74.1781C208.556 73.733 209.522 73.0943 210.353 72.2622C211.183 71.4494 211.821 70.4818 212.285 69.398C212.749 68.3143 212.961 67.1144 212.961 65.8371C212.961 64.5599 212.729 63.3987 212.285 62.315C211.821 61.2313 211.183 60.2636 210.353 59.4508C209.522 58.6187 208.556 57.98 207.435 57.5156C206.314 57.0511 205.097 56.8189 203.763 56.8189ZM208.671 65.8371C208.671 66.6112 208.556 67.3273 208.304 67.9659C208.072 68.6046 207.725 69.1464 207.28 69.6109C206.836 70.056 206.314 70.4043 205.715 70.6559C205.116 70.9075 204.459 71.0236 203.744 71.0236C202.797 71.0236 201.966 70.8107 201.213 70.385C200.478 69.9592 199.879 69.3593 199.454 68.5852C199.029 67.8111 198.817 66.9015 198.817 65.8565C198.817 65.063 198.933 64.347 199.184 63.7277C199.435 63.0891 199.783 62.5472 200.208 62.1021C200.652 61.657 201.174 61.3087 201.773 61.0571C202.372 60.8055 203.029 60.6894 203.744 60.6894C204.691 60.6894 205.541 60.9023 206.275 61.328C207.01 61.7538 207.609 62.3537 208.034 63.1278C208.459 63.9019 208.671 64.8115 208.671 65.8758V65.8371ZM230.507 74.5071V57.2059H226.41V63.6116H219.589V57.2059H215.493V74.5071H219.589V67.366H226.41V74.5071H230.507ZM234.082 74.5071H238.178V60.941H244.651V57.1866H234.082V74.4877V74.5071ZM246.661 57.1866V74.4877H250.757V68.6239H253.482C254.912 68.6239 256.129 68.3917 257.134 67.9466C258.139 67.5015 258.912 66.8628 259.434 66.0113C259.955 65.1598 260.226 64.1341 260.226 62.9149C260.226 61.6957 259.936 60.6894 259.376 59.8185C258.796 58.967 258.023 58.309 257.018 57.8639C256.033 57.4188 254.873 57.1866 253.579 57.1866H246.661ZM256.129 62.973C256.129 63.7664 255.897 64.3277 255.414 64.676C254.931 65.0243 254.255 65.1792 253.405 65.1792H250.777V60.7087H253.424C254.236 60.7087 254.893 60.8829 255.395 61.2506C255.897 61.6183 256.149 62.1795 256.149 62.973H256.129ZM274.544 60.7474V57.1866H262.39V74.4877H274.641V70.8881H266.506V67.2499H273.25V63.96H266.506V60.7474H274.544ZM282.158 62.1795C282.602 61.7344 283.124 61.4054 283.762 61.1732C284.399 60.941 285.114 60.8248 285.906 60.8248C286.699 60.8248 287.472 60.941 288.148 61.1925C288.824 61.4441 289.404 61.8118 289.868 62.2957L291.916 58.9283C291.124 58.2703 290.235 57.7478 289.269 57.3801C288.283 57.0124 287.085 56.8382 285.636 56.8382C284.303 56.8382 283.085 57.0511 281.984 57.4962C280.863 57.9413 279.897 58.5606 279.085 59.3734C278.274 60.1862 277.636 61.1345 277.192 62.2569C276.747 63.36 276.515 64.5792 276.515 65.9146C276.515 67.753 276.902 69.3399 277.655 70.6753C278.428 72.0106 279.491 73.0556 280.844 73.791C282.196 74.5264 283.781 74.8941 285.578 74.8941C287.066 74.8941 288.36 74.7006 289.462 74.3329C290.583 73.9652 291.529 73.462 292.322 72.8428L290.447 69.398C289.771 69.9205 289.037 70.3076 288.283 70.5398C287.53 70.772 286.757 70.8881 285.984 70.8881C284.902 70.8881 283.974 70.6946 283.201 70.2882C282.428 69.8818 281.829 69.3206 281.423 68.5658C281.018 67.8111 280.805 66.9209 280.805 65.8565C280.805 65.0824 280.921 64.4051 281.153 63.7858C281.385 63.1665 281.713 62.644 282.158 62.1989V62.1795ZM298.911 62.1795C299.355 61.7344 299.877 61.4054 300.515 61.1732C301.152 60.941 301.867 60.8248 302.66 60.8248C303.452 60.8248 304.225 60.941 304.901 61.1925C305.577 61.4441 306.157 61.8118 306.621 62.2957L308.669 58.9283C307.877 58.2703 306.988 57.7478 306.022 57.3801C305.036 57.0124 303.838 56.8382 302.389 56.8382C301.056 56.8382 299.838 57.0511 298.737 57.4962C297.616 57.9413 296.65 58.5606 295.839 59.3734C295.027 60.1862 294.389 61.1345 293.945 62.2569C293.5 63.36 293.269 64.5792 293.269 65.9146C293.269 67.753 293.655 69.3399 294.409 70.6753C295.182 72.0106 296.244 73.0556 297.597 73.791C298.95 74.5264 300.534 74.8941 302.331 74.8941C303.819 74.8941 305.114 74.7006 306.215 74.3329C307.336 73.9652 308.283 73.462 309.075 72.8428L307.201 69.398C306.524 69.9205 305.79 70.3076 305.036 70.5398C304.283 70.772 303.51 70.8881 302.737 70.8881C301.655 70.8881 300.727 70.6946 299.954 70.2882C299.181 69.8818 298.582 69.3206 298.177 68.5658C297.771 67.8111 297.558 66.9209 297.558 65.8565C297.558 65.0824 297.674 64.4051 297.906 63.7858C298.138 63.1665 298.466 62.644 298.911 62.1989V62.1795ZM310.292 69.2819H317.558V65.7404H310.292V69.2819ZM337.886 78.842V70.7527H335.103V57.1866H331.007V70.7527H324.437V57.1866H320.34V74.4877H334.002V78.842H337.886ZM352.185 60.7474V57.1866H340.031V74.4877H352.282V70.8881H344.147V67.2499H350.89V63.96H344.147V60.7474H352.185ZM370.233 74.5071V57.2059H366.136V63.6116H359.315V57.2059H355.219V74.5071H359.315V67.366H366.136V74.5071H370.233ZM380.977 74.5071V60.941H385.576V57.1866H372.243V60.941H376.841V74.5071H380.957H380.977ZM400.281 59.8185C399.701 58.967 398.928 58.309 397.923 57.8639C396.938 57.4188 395.778 57.1866 394.484 57.1866H387.566V74.4877H391.662V68.6239H394.387C395.817 68.6239 397.034 68.3917 398.039 67.9466C399.044 67.5015 399.817 66.8628 400.338 66.0113C400.86 65.1598 401.131 64.1341 401.131 62.9149C401.131 61.6957 400.841 60.6894 400.281 59.8185ZM396.319 64.676C395.836 65.0243 395.16 65.1792 394.31 65.1792H391.682V60.7087H394.329C395.141 60.7087 395.798 60.8829 396.3 61.2506C396.802 61.6183 397.054 62.1795 397.054 62.973C397.054 63.7664 396.822 64.3277 396.339 64.676H396.319Z" fill="white"/>
<path d="M67.8631 66.9983C66.9936 61.4442 67.0709 55.9674 67.8631 50.7616C64.2883 53.0452 60.2884 55.9287 56.2499 59.4702L53.7379 90.2987V102.626H54.5494C57.5059 91.905 64.0758 83.6415 70.7036 77.6615C69.4283 74.3716 68.4621 70.8301 67.8631 67.0177V66.9983Z" fill="url(#paint0_linear_6_7)"/>
<path d="M28.096 102.607H54.4722V0H52.6171L0 26.4548L7.59403 49.136L28.0766 39.034V102.607H28.096ZM87.9786 99.704C94.1427 103.071 101.196 104.755 109.118 104.755C115.031 104.755 120.422 103.865 125.272 102.065C130.123 100.265 134.296 97.7688 137.813 94.5369C141.33 91.305 144.035 87.5507 145.948 83.2738C147.861 78.9969 148.808 74.391 148.808 69.4561C148.808 63.1859 147.359 57.6124 144.441 52.7355C141.523 47.8587 137.523 44.0076 132.403 41.2208C127.282 38.4147 121.446 36.9826 114.857 37.0213C108.809 37.06 105.427 38.763 103.109 41.0079C100.481 43.5625 98.1233 47.2588 96.848 52.8904C97.6016 45.788 100.442 41.2982 101.833 39.4791C101.872 39.421 101.93 39.3823 101.969 39.3242C102.374 38.8211 102.645 38.5308 102.645 38.5308C102.645 38.5308 102.645 38.5308 102.664 38.5308C104.403 36.5181 106.374 34.6603 108.654 32.996C111.282 31.0608 114.297 29.319 117.717 27.7515C121.137 26.2033 124.963 24.8486 129.214 23.7261C133.465 22.6037 138.142 21.6748 143.262 20.9587L133.659 0C124.577 1.43208 116.075 3.96725 108.152 7.60551C100.23 11.2438 93.2539 15.811 87.2637 21.3071C81.2735 26.8032 76.5779 33.1314 73.2157 40.2919C69.8534 47.4523 68.1723 55.2513 68.1723 63.7277C68.1723 72.2041 69.9307 79.2871 73.4669 85.4412C77.003 91.5953 81.8532 96.356 88.0173 99.7234L87.9786 99.704ZM97.6596 64.0374C98.7996 62.2376 100.365 60.8249 102.355 59.7992C104.345 58.7735 106.587 58.251 109.118 58.251C111.65 58.251 113.91 58.7735 115.881 59.7992C117.872 60.8249 119.437 62.2376 120.577 64.0374C121.717 65.8372 122.297 67.8692 122.297 70.1721C122.297 72.4751 121.717 74.5071 120.577 76.3069C119.437 78.1066 117.872 79.5194 115.881 80.5451C113.891 81.5707 111.65 82.0933 109.118 82.0933C106.587 82.0933 104.326 81.5707 102.355 80.5451C100.365 79.5194 98.7996 78.1066 97.6596 76.3069C96.5195 74.5071 95.9398 72.4751 95.9398 70.1721C95.9398 67.8692 96.5195 65.8372 97.6596 64.0374ZM134.238 113.928C133.079 114.393 132.171 115.089 131.533 116.038C130.895 116.986 130.567 118.186 130.567 119.637C130.567 120.818 130.876 121.843 131.514 122.733C132.152 123.624 133.021 124.34 134.122 124.882L129.427 132.448H135.707L139.436 125.83H140.615V132.448H146.142V113.231H138.277C136.731 113.231 135.359 113.464 134.2 113.928H134.238ZM140.634 117.741V121.476H138.605C137.852 121.476 137.253 121.34 136.828 121.069C136.383 120.798 136.171 120.314 136.171 119.618C136.171 118.921 136.383 118.418 136.828 118.147C137.253 117.876 137.852 117.741 138.586 117.741H140.634ZM35.3808 115.728C34.4533 114.818 33.3519 114.102 32.0959 113.58C30.8399 113.057 29.4679 112.806 27.9607 112.806C26.4535 112.806 25.0815 113.057 23.8255 113.56C22.5695 114.064 21.4681 114.76 20.5406 115.67C19.6131 116.579 18.8981 117.644 18.3957 118.863C17.8933 120.082 17.6421 121.398 17.6421 122.83C17.6421 124.262 17.8933 125.559 18.3957 126.778C18.8981 127.997 19.6131 129.062 20.5406 129.971C21.4681 130.881 22.5695 131.578 23.8255 132.1C25.0815 132.603 26.4728 132.855 27.9607 132.855C29.4486 132.855 30.8399 132.603 32.0959 132.1C33.3519 131.597 34.4533 130.881 35.3808 129.971C36.3083 129.062 37.0233 127.997 37.545 126.778C38.0474 125.559 38.3179 124.243 38.3179 122.83C38.3179 121.418 38.0667 120.121 37.545 118.921C37.0233 117.702 36.3083 116.637 35.3808 115.728ZM32.1732 124.843C31.9606 125.443 31.6514 125.946 31.2456 126.372C30.8399 126.798 30.3568 127.107 29.8157 127.339C29.2554 127.572 28.6563 127.668 27.98 127.668C27.0912 127.668 26.3182 127.475 25.6226 127.068C24.9463 126.681 24.4052 126.12 24.0188 125.385C23.6323 124.669 23.4391 123.798 23.4391 122.811C23.4391 122.075 23.555 121.398 23.7676 120.798C23.9801 120.198 24.2893 119.695 24.6951 119.269C25.1009 118.844 25.5839 118.534 26.125 118.302C26.6854 118.07 27.2844 117.973 27.9607 117.973C28.8496 117.973 29.6225 118.166 30.3181 118.553C30.9944 118.94 31.5355 119.502 31.922 120.237C32.3084 120.953 32.5017 121.824 32.5017 122.811C32.5017 123.546 32.3857 124.224 32.1732 124.824V124.843ZM108.79 122.076C107.476 121.089 105.679 120.585 103.399 120.585H100.848V118.011H109.022V113.231H95.3214V132.448H103.399C104.906 132.448 106.22 132.216 107.321 131.732C108.423 131.268 109.273 130.591 109.872 129.7C110.471 128.81 110.761 127.746 110.761 126.507C110.761 124.533 110.104 123.062 108.79 122.076ZM104.403 127.959C104.017 128.288 103.437 128.462 102.664 128.462H100.848V124.572H102.935C103.592 124.572 104.094 124.746 104.461 125.094C104.809 125.443 105.002 125.927 105.002 126.527C105.002 127.126 104.809 127.649 104.423 127.978L104.403 127.959ZM125.369 114.025C124.21 113.502 122.915 113.251 121.427 113.251H113.234V132.468H118.761V126.546H121.292C122.934 126.546 124.345 126.294 125.504 125.772C126.664 125.249 127.553 124.495 128.171 123.508C128.789 122.521 129.098 121.321 129.098 119.908C129.098 118.495 128.77 117.315 128.113 116.328C127.456 115.341 126.548 114.586 125.388 114.064L125.369 114.025ZM122.876 121.495C122.432 121.785 121.833 121.921 121.06 121.921H118.761V117.934H121.099C121.814 117.934 122.393 118.07 122.857 118.36C123.321 118.65 123.533 119.173 123.533 119.947C123.533 120.721 123.321 121.205 122.876 121.495ZM79.7276 113.928C78.5682 114.393 77.66 115.089 77.0224 116.038C76.3847 116.986 76.0562 118.186 76.0562 119.637C76.0562 120.818 76.3654 121.843 77.003 122.733C77.6407 123.624 78.5102 124.34 79.6117 124.882L74.9161 132.448H81.1962L84.9256 125.83H86.1043V132.448H91.6307V113.231H83.7662C82.2203 113.231 80.8484 113.464 79.689 113.928H79.7276ZM86.1236 117.741V121.476H84.0947C83.341 121.476 82.742 121.34 82.3169 121.069C81.8725 120.798 81.6599 120.314 81.6599 119.618C81.6599 118.921 81.8725 118.418 82.3169 118.147C82.742 117.876 83.341 117.741 84.0753 117.741H86.1236ZM58.8006 113.231H51.8635L46.8588 120.005H46.2984V113.231H40.772V132.448H46.2984V125.056H46.7815L52.5205 132.448H59.6121L51.6316 122.656L58.7812 113.231H58.8006ZM59.2643 118.282H64.1917V132.448H69.7568V118.282H74.6842V113.231H59.245V118.282H59.2643Z" fill="url(#paint1_radial_6_7)"/>
<defs>
<linearGradient id="paint0_linear_6_7" x1="42.4144" y1="99.0848" x2="76.8784" y2="51.3142" gradientUnits="userSpaceOnUse">
<stop stop-color="#3947A1"/>
<stop offset="1" stop-color="#D382FF"/>
</linearGradient>
<radialGradient id="paint1_radial_6_7" cx="0" cy="0" r="1" gradientUnits="userSpaceOnUse" gradientTransform="translate(38 87) rotate(-9.38915) scale(128.725 119.995)">
<stop offset="0.283654" stop-color="#5CCDFF"/>
<stop offset="1" stop-color="#C478FF"/>
</radialGradient>
</defs>
</svg>
