<svg width="345" height="100" viewBox="0 0 345 100" fill="none" xmlns="http://www.w3.org/2000/svg">
<path d="M109.286 88.7812L19.4471 88.8158L30.3862 69.9099L13.9603 75.9003L0 100H115.815L109.286 88.7812Z" fill="#2B2E42"/>
<path d="M48.0969 39.3353L51.6043 33.2757L57.8899 22.403L64.3839 11.2188L57.8899 0L17.8149 69.2522L38.1997 56.4405L48.0969 39.3353Z" fill="url(#paint0_linear_719_985)"/>
<path d="M67.6916 60.3886V46.9134H63V42.116H77.7098V46.9134H73.0182V60.3886H67.7269H67.6916ZM79.5088 60.3886V42.116H84.7648V48.5713H90.8674V42.116H96.1234V60.3886H90.8674V53.3688H84.7648V60.3886H79.5088ZM99.651 60.3886V42.116H107.412C108.823 42.116 110.092 42.3276 111.151 42.7862C112.209 43.2448 113.056 43.8797 113.62 44.7264C114.22 45.573 114.502 46.596 114.502 47.8306C114.502 48.7125 114.361 49.4885 114.043 50.1587C113.726 50.8289 113.302 51.3934 112.773 51.852C112.244 52.3105 111.68 52.6633 111.045 52.9455L115.56 60.4238H109.352L105.93 54.1448H104.907V60.4238H99.651V60.3886ZM104.907 49.9471H106.847C107.588 49.9471 108.152 49.806 108.54 49.559C108.964 49.3121 109.175 48.8535 109.175 48.1833C109.175 47.5131 108.964 47.0545 108.54 46.8076C108.117 46.5607 107.553 46.4195 106.847 46.4195H104.872V49.9824L104.907 49.9471ZM117.43 60.3886V42.116H130.975V46.6665H122.686V49.0299H129.459V53.1924H122.686V55.8028H131.081V60.3886H117.43ZM131.857 60.3886L138.524 42.116H144.803L151.435 60.3886H145.474L144.451 57.1433H138.665L137.642 60.3886H131.857ZM139.794 52.7691H143.286L141.558 47.5484L139.794 52.7691ZM154.716 60.3886V46.9134H150.024V42.116H164.734V46.9134H160.042V60.3886H154.751H154.716ZM64.6227 82.612V64.3394H69.8787V82.612H64.6227ZM73.3709 82.612V64.3394H78.6269L85.0117 74.1459V64.3394H90.0914V82.612H84.8001L78.4153 72.6291V82.612H73.3356H73.3709ZM96.6526 82.612V69.1368H91.961V64.3394H106.671V69.1368H101.979V82.612H96.6879H96.6526ZM108.47 82.612V64.3394H122.015V68.8899H113.726V71.2534H120.499V75.4158H113.726V78.0262H122.121V82.612H108.47ZM124.943 82.612V64.3394H130.199V77.8145H137.113V82.612H124.908H124.943ZM139.336 82.612V64.3394H144.592V77.8145H151.506V82.612H139.3H139.336ZM153.763 82.612V64.3394H159.019V82.612H153.763ZM171.718 83C170.343 83 169.002 82.7883 167.767 82.365C166.533 81.9417 165.404 81.3068 164.452 80.4954C163.499 79.6841 162.723 78.6964 162.194 77.497C161.63 76.333 161.383 74.9925 161.383 73.4757C161.383 71.9588 161.665 70.6537 162.194 69.4896C162.723 68.3255 163.464 67.3025 164.381 66.4912C165.298 65.6798 166.392 65.0449 167.626 64.5863C168.861 64.163 170.166 63.9514 171.542 63.9514C172.177 63.9514 172.847 63.9867 173.588 64.0925C174.329 64.1983 175.069 64.3747 175.845 64.6216C176.622 64.8685 177.398 65.2566 178.174 65.7504L176.022 69.8071C175.422 69.419 174.787 69.1368 174.117 68.9252C173.447 68.7488 172.741 68.643 171.965 68.643C171.189 68.643 170.413 68.7488 169.778 68.9604C169.143 69.1721 168.579 69.4896 168.155 69.9129C167.732 70.3362 167.379 70.8301 167.132 71.4297C166.886 72.0294 166.78 72.6996 166.78 73.4757C166.78 74.6045 167.027 75.5216 167.521 76.2271C168.014 76.9326 168.649 77.4971 169.461 77.8498C170.272 78.2026 171.119 78.3789 172.071 78.3789C172.353 78.3789 172.635 78.3789 172.953 78.3084C173.27 78.2731 173.553 78.2025 173.835 78.1673V75.698H170.378V71.5708H178.421V81.4126C177.821 81.7301 177.151 81.977 176.375 82.224C175.599 82.4709 174.823 82.612 174.011 82.7531C173.2 82.8589 172.459 82.9294 171.754 82.9294L171.718 83ZM181.631 82.612V64.3394H195.176V68.8899H186.887V71.2534H193.659V75.4158H186.887V78.0262H195.282V82.612H181.631ZM198.069 82.612V64.3394H203.325L209.71 74.1459V64.3394H214.789V82.612H209.498L203.113 72.6291V82.612H198.034H198.069ZM226.853 83C224.949 83 223.291 82.612 221.809 81.8359C220.363 81.0599 219.199 79.9663 218.387 78.5553C217.576 77.1443 217.153 75.4511 217.153 73.511C217.153 72.1 217.4 70.7947 217.858 69.6307C218.317 68.4666 219.022 67.4436 219.904 66.597C220.786 65.7504 221.809 65.0802 223.008 64.6216C224.208 64.163 225.513 63.9161 226.924 63.9161C228.547 63.9161 229.887 64.1277 230.91 64.5158C231.933 64.9038 232.921 65.5035 233.803 66.2443L231.228 70.5831C230.769 70.054 230.205 69.7012 229.499 69.419C228.829 69.1721 228.088 69.031 227.242 69.031C226.501 69.031 225.866 69.1368 225.301 69.3485C224.737 69.5601 224.278 69.8423 223.855 70.2303C223.467 70.6184 223.185 71.0769 222.973 71.6061C222.762 72.1352 222.691 72.7349 222.691 73.4051C222.691 74.3223 222.867 75.0983 223.255 75.7686C223.608 76.4035 224.137 76.9326 224.843 77.2854C225.513 77.6381 226.36 77.8145 227.347 77.8145C228.088 77.8145 228.864 77.7087 229.64 77.4618C230.416 77.2148 231.157 76.8621 231.863 76.3683L234.261 80.7777C233.45 81.4126 232.427 81.9417 231.228 82.3298C230.028 82.7178 228.582 82.9647 226.924 82.9647L226.853 83ZM236.025 82.612V64.3394H249.571V68.8899H241.281V71.2534H248.054V75.4158H241.281V78.0262H249.677V82.612H236.025ZM257.719 82.612V64.3394H270.242V69.1368H262.975V71.9236H269.431V76.5093H262.975V82.5767H257.719V82.612ZM272.993 82.612V64.3394H286.539V68.8899H278.249V71.2534H285.022V75.4158H278.249V78.0262H286.645V82.612H272.993ZM289.432 82.612V64.3394H302.977V68.8899H294.688V71.2534H301.461V75.4158H294.688V78.0262H303.083V82.612H289.432ZM305.87 82.612V64.3394H312.502C314.442 64.3394 316.17 64.7274 317.617 65.5035C319.063 66.2795 320.227 67.3378 321.003 68.7135C321.814 70.0893 322.202 71.6766 322.202 73.4757C322.202 74.8514 321.956 76.0861 321.497 77.2149C321.038 78.3437 320.368 79.2961 319.522 80.1074C318.675 80.9187 317.652 81.5184 316.453 81.977C315.253 82.4003 313.913 82.612 312.466 82.612H305.835H305.87ZM311.126 77.7087H312.361C312.996 77.7087 313.595 77.6381 314.124 77.4618C314.654 77.2854 315.112 77.0385 315.5 76.6857C315.888 76.333 316.17 75.9096 316.382 75.3452C316.594 74.8161 316.7 74.1812 316.7 73.4757C316.7 72.5232 316.523 71.7119 316.135 71.1122C315.747 70.5125 315.253 70.0187 314.618 69.7012C313.983 69.3838 313.207 69.2426 312.361 69.2426H311.126V77.7087ZM331.268 83C329.787 83 328.376 82.7884 327 82.3298C325.624 81.9065 324.46 81.2362 323.508 80.4249L325.942 76.5446C326.294 76.9679 326.788 77.3207 327.388 77.6382C327.988 77.9556 328.623 78.2025 329.328 78.3789C330.034 78.5553 330.668 78.6259 331.303 78.6259C332.009 78.6259 332.573 78.5201 333.032 78.3084C333.491 78.0967 333.702 77.8145 333.702 77.4618C333.702 77.109 333.526 76.8268 333.173 76.5799C332.82 76.3682 332.185 76.1213 331.233 75.8744L329.892 75.5216C327.917 74.9925 326.506 74.2164 325.624 73.264C324.778 72.3116 324.354 71.1828 324.354 69.8423C324.354 69.031 324.531 68.255 324.883 67.5142C325.236 66.7734 325.765 66.1737 326.4 65.6445C327.035 65.1154 327.811 64.6921 328.693 64.4099C329.575 64.1277 330.527 63.9867 331.55 63.9867C333.032 63.9867 334.408 64.1983 335.678 64.6216C336.947 65.0449 337.97 65.6446 338.711 66.3853L336.171 70.1598C335.854 69.8071 335.466 69.4896 335.007 69.2074C334.513 68.9252 333.984 68.7135 333.42 68.5724C332.856 68.4313 332.256 68.3255 331.691 68.3255C331.233 68.3255 330.845 68.3608 330.492 68.5019C330.139 68.6077 329.892 68.7488 329.716 68.9604C329.54 69.1721 329.434 69.3485 329.434 69.5954C329.434 69.8071 329.504 69.9834 329.681 70.1245C329.822 70.2656 330.104 70.4067 330.457 70.5125C330.81 70.6184 331.303 70.7948 331.938 70.9711L333.279 71.3592C335.254 71.9589 336.701 72.6644 337.547 73.511C338.429 74.3576 338.852 75.4511 338.852 76.8268C338.852 78.0262 338.535 79.0844 337.9 80.0369C337.265 80.9893 336.383 81.6948 335.254 82.1886C334.125 82.7178 332.785 82.9647 331.303 82.9647L331.268 83Z" fill="#2B2E42"/>
<path d="M153.438 16.9595L142.32 36.5H145.714L148.997 30.7302H157.876L161.159 36.5H164.553L153.438 16.9595ZM150.695 27.744L153.438 22.924L156.181 27.744H150.697H150.695ZM118.836 36.4974H122.23L130.088 22.6819L136.396 33.769H127.185L125.632 36.4974H141.343L130.091 16.7174L118.836 36.4974ZM77.8488 36.4974H81.2426L84.5249 30.7276H93.4048L96.6871 36.4974H100.081L88.9661 16.9595L77.8488 36.5V36.4974ZM86.2231 27.744L88.9661 22.924L91.7092 27.744H86.2257H86.2231ZM81.3515 18.0092H65.0151V36.5H67.9552V20.9928H81.3541V18.0092H81.3515ZM121.714 23.9922C121.714 20.6929 119.07 18.0092 115.818 18.0092H102.199V36.5H105.139V20.9928H115.818C117.449 20.9928 118.774 22.3373 118.774 23.9922C118.774 25.6471 117.447 26.9915 115.818 26.9915H109.274L107.576 29.9751H115.818C119.07 29.9751 121.714 27.2915 121.714 23.9922Z" fill="#2B2E42"/>
<defs>
<linearGradient id="paint0_linear_719_985" x1="17.8149" y1="69.2522" x2="81.9509" y2="26.1237" gradientUnits="userSpaceOnUse">
<stop stop-color="#15B8FF"/>
<stop offset="1" stop-color="#BF4AFF"/>
</linearGradient>
</defs>
</svg>
