<svg width="345" height="100" viewBox="0 0 345 100" fill="none" xmlns="http://www.w3.org/2000/svg">
<path d="M109.286 88.7814L19.4471 88.816L30.3862 69.9102L13.9603 75.9005L0 100H115.815L109.286 88.7814Z" fill="white"/>
<path d="M48.0969 39.3353L51.6043 33.2757L57.8899 22.403L64.3839 11.2188L57.8899 0L17.8149 69.2522L38.1997 56.4405L48.0969 39.3353Z" fill="url(#paint0_linear_720_1874)"/>
<path d="M67.6916 60.3888V46.9136H63V42.1162H77.7098V46.9136H73.0182V60.3888H67.7269H67.6916ZM79.5088 60.3888V42.1162H84.7648V48.5716H90.8674V42.1162H96.1234V60.3888H90.8674V53.369H84.7648V60.3888H79.5088ZM99.651 60.3888V42.1162H107.412C108.823 42.1162 110.092 42.3279 111.151 42.7864C112.209 43.245 113.056 43.88 113.62 44.7266C114.22 45.5732 114.502 46.5962 114.502 47.8308C114.502 48.7127 114.361 49.4887 114.043 50.159C113.726 50.8292 113.302 51.3936 112.773 51.8522C112.244 52.3108 111.68 52.6635 111.045 52.9457L115.56 60.4241H109.352L105.93 54.1451H104.907V60.4241H99.651V60.3888ZM104.907 49.9473H106.847C107.588 49.9473 108.152 49.8062 108.54 49.5593C108.964 49.3124 109.175 48.8538 109.175 48.1836C109.175 47.5133 108.964 47.0548 108.54 46.8078C108.117 46.5609 107.553 46.4198 106.847 46.4198H104.872V49.9826L104.907 49.9473ZM117.43 60.3888V42.1162H130.975V46.6667H122.686V49.0302H129.459V53.1926H122.686V55.803H131.081V60.3888H117.43ZM131.857 60.3888L138.524 42.1162H144.803L151.435 60.3888H145.474L144.451 57.1435H138.665L137.642 60.3888H131.857ZM139.794 52.7693H143.286L141.558 47.5486L139.794 52.7693ZM154.716 60.3888V46.9136H150.024V42.1162H164.734V46.9136H160.042V60.3888H154.751H154.716ZM64.6227 82.6122V64.3396H69.8787V82.6122H64.6227ZM73.3709 82.6122V64.3396H78.6269L85.0117 74.1461V64.3396H90.0914V82.6122H84.8001L78.4153 72.6293V82.6122H73.3356H73.3709ZM96.6526 82.6122V69.1371H91.961V64.3396H106.671V69.1371H101.979V82.6122H96.6879H96.6526ZM108.47 82.6122V64.3396H122.015V68.8902H113.726V71.2536H120.499V75.416H113.726V78.0264H122.121V82.6122H108.47ZM124.943 82.6122V64.3396H130.199V77.8148H137.113V82.6122H124.908H124.943ZM139.336 82.6122V64.3396H144.592V77.8148H151.506V82.6122H139.3H139.336ZM153.763 82.6122V64.3396H159.019V82.6122H153.763ZM171.718 83.0003C170.343 83.0003 169.002 82.7886 167.767 82.3653C166.533 81.942 165.404 81.307 164.452 80.4957C163.499 79.6844 162.723 78.6966 162.194 77.4973C161.63 76.3332 161.383 74.9927 161.383 73.4759C161.383 71.9591 161.665 70.6539 162.194 69.4898C162.723 68.3258 163.464 67.3027 164.381 66.4914C165.298 65.6801 166.392 65.0452 167.626 64.5866C168.861 64.1633 170.166 63.9516 171.542 63.9516C172.177 63.9516 172.847 63.9869 173.588 64.0927C174.329 64.1985 175.069 64.3749 175.845 64.6218C176.622 64.8688 177.398 65.2568 178.174 65.7507L176.022 69.8073C175.422 69.4193 174.787 69.1371 174.117 68.9254C173.447 68.749 172.741 68.6432 171.965 68.6432C171.189 68.6432 170.413 68.749 169.778 68.9607C169.143 69.1723 168.579 69.4898 168.155 69.9131C167.732 70.3364 167.379 70.8303 167.132 71.43C166.886 72.0297 166.78 72.6998 166.78 73.4759C166.78 74.6047 167.027 75.5219 167.521 76.2274C168.014 76.9329 168.649 77.4973 169.461 77.85C170.272 78.2028 171.119 78.3792 172.071 78.3792C172.353 78.3792 172.635 78.3792 172.953 78.3086C173.27 78.2734 173.553 78.2028 173.835 78.1675V75.6983H170.378V71.5711H178.421V81.4128C177.821 81.7303 177.151 81.9773 176.375 82.2242C175.599 82.4711 174.823 82.6122 174.011 82.7533C173.2 82.8591 172.459 82.9297 171.754 82.9297L171.718 83.0003ZM181.631 82.6122V64.3396H195.176V68.8902H186.887V71.2536H193.659V75.416H186.887V78.0264H195.282V82.6122H181.631ZM198.069 82.6122V64.3396H203.325L209.71 74.1461V64.3396H214.789V82.6122H209.498L203.113 72.6293V82.6122H198.034H198.069ZM226.853 83.0003C224.949 83.0003 223.291 82.6122 221.809 81.8362C220.363 81.0601 219.199 79.9666 218.387 78.5555C217.576 77.1445 217.153 75.4513 217.153 73.5112C217.153 72.1002 217.4 70.795 217.858 69.6309C218.317 68.4668 219.022 67.4438 219.904 66.5972C220.786 65.7506 221.809 65.0804 223.008 64.6218C224.208 64.1633 225.513 63.9163 226.924 63.9163C228.547 63.9163 229.887 64.128 230.91 64.516C231.933 64.904 232.921 65.5037 233.803 66.2445L231.228 70.5834C230.769 70.0542 230.205 69.7015 229.499 69.4193C228.829 69.1723 228.088 69.0312 227.242 69.0312C226.501 69.0312 225.866 69.1371 225.301 69.3487C224.737 69.5604 224.278 69.8426 223.855 70.2306C223.467 70.6186 223.185 71.0772 222.973 71.6063C222.762 72.1354 222.691 72.7352 222.691 73.4054C222.691 74.3225 222.867 75.0986 223.255 75.7688C223.608 76.4038 224.137 76.9329 224.843 77.2856C225.513 77.6384 226.36 77.8148 227.347 77.8148C228.088 77.8148 228.864 77.7089 229.64 77.462C230.416 77.2151 231.157 76.8624 231.863 76.3685L234.261 80.7779C233.45 81.4129 232.427 81.942 231.228 82.33C230.028 82.718 228.582 82.9649 226.924 82.9649L226.853 83.0003ZM236.025 82.6122V64.3396H249.571V68.8902H241.281V71.2536H248.054V75.416H241.281V78.0264H249.677V82.6122H236.025ZM257.719 82.6122V64.3396H270.242V69.1371H262.975V71.9238H269.431V76.5096H262.975V82.5769H257.719V82.6122ZM272.993 82.6122V64.3396H286.539V68.8902H278.249V71.2536H285.022V75.416H278.249V78.0264H286.645V82.6122H272.993ZM289.432 82.6122V64.3396H302.977V68.8902H294.688V71.2536H301.461V75.416H294.688V78.0264H303.083V82.6122H289.432ZM305.87 82.6122V64.3396H312.502C314.442 64.3396 316.17 64.7277 317.617 65.5037C319.063 66.2798 320.227 67.338 321.003 68.7138C321.814 70.0895 322.202 71.6769 322.202 73.4759C322.202 74.8516 321.956 76.0863 321.497 77.2151C321.038 78.3439 320.368 79.2963 319.522 80.1077C318.675 80.919 317.652 81.5187 316.453 81.9772C315.253 82.4005 313.913 82.6122 312.466 82.6122H305.835H305.87ZM311.126 77.709H312.361C312.996 77.709 313.595 77.6384 314.124 77.462C314.654 77.2856 315.112 77.0387 315.5 76.686C315.888 76.3332 316.17 75.9099 316.382 75.3455C316.594 74.8164 316.7 74.1814 316.7 73.4759C316.7 72.5235 316.523 71.7121 316.135 71.1125C315.747 70.5128 315.253 70.019 314.618 69.7015C313.983 69.384 313.207 69.2429 312.361 69.2429H311.126V77.709ZM331.268 83.0003C329.787 83.0003 328.376 82.7886 327 82.33C325.624 81.9067 324.46 81.2365 323.508 80.4251L325.942 76.5449C326.294 76.9682 326.788 77.3209 327.388 77.6384C327.988 77.9559 328.623 78.2028 329.328 78.3792C330.034 78.5555 330.668 78.6261 331.303 78.6261C332.009 78.6261 332.573 78.5203 333.032 78.3086C333.491 78.097 333.702 77.8148 333.702 77.462C333.702 77.1093 333.526 76.8271 333.173 76.5801C332.82 76.3685 332.185 76.1216 331.233 75.8746L329.892 75.5219C327.917 74.9927 326.506 74.2167 325.624 73.2643C324.778 72.3118 324.354 71.183 324.354 69.8426C324.354 69.0312 324.531 68.2552 324.883 67.5144C325.236 66.7736 325.765 66.1739 326.4 65.6448C327.035 65.1157 327.811 64.6924 328.693 64.4102C329.575 64.128 330.527 63.9869 331.55 63.9869C333.032 63.9869 334.408 64.1985 335.678 64.6218C336.947 65.0451 337.97 65.6448 338.711 66.3856L336.171 70.1601C335.854 69.8073 335.466 69.4898 335.007 69.2076C334.513 68.9254 333.984 68.7137 333.42 68.5726C332.856 68.4315 332.256 68.3257 331.691 68.3257C331.233 68.3257 330.845 68.361 330.492 68.5021C330.139 68.608 329.892 68.749 329.716 68.9607C329.54 69.1723 329.434 69.3487 329.434 69.5957C329.434 69.8073 329.504 69.9837 329.681 70.1248C329.822 70.2659 330.104 70.407 330.457 70.5128C330.81 70.6186 331.303 70.795 331.938 70.9714L333.279 71.3594C335.254 71.9591 336.701 72.6646 337.547 73.5112C338.429 74.3578 338.852 75.4514 338.852 76.8271C338.852 78.0265 338.535 79.0847 337.9 80.0371C337.265 80.9895 336.383 81.695 335.254 82.1889C334.125 82.718 332.785 82.9649 331.303 82.9649L331.268 83.0003Z" fill="white"/>
<path d="M153.438 16.9593L142.32 36.4999H145.714L148.997 30.7301H157.876L161.159 36.4999H164.553L153.438 16.9593ZM150.695 27.7439L153.438 22.9239L156.181 27.7439H150.697H150.695ZM118.836 36.4973H122.23L130.088 22.6818L136.396 33.7689H127.185L125.632 36.4973H141.343L130.091 16.7173L118.836 36.4973ZM77.8488 36.4973H81.2426L84.5249 30.7274H93.4048L96.6871 36.4973H100.081L88.9661 16.9593L77.8488 36.4999V36.4973ZM86.2231 27.7439L88.9661 22.9239L91.7092 27.7439H86.2257H86.2231ZM81.3515 18.0091H65.0151V36.4999H67.9552V20.9927H81.3541V18.0091H81.3515ZM121.714 23.992C121.714 20.6928 119.07 18.0091 115.818 18.0091H102.199V36.4999H105.139V20.9927H115.818C117.449 20.9927 118.774 22.3371 118.774 23.992C118.774 25.647 117.447 26.9914 115.818 26.9914H109.274L107.576 29.975H115.818C119.07 29.975 121.714 27.2913 121.714 23.992Z" fill="white"/>
<defs>
<linearGradient id="paint0_linear_720_1874" x1="17.8149" y1="69.2522" x2="81.9509" y2="26.1237" gradientUnits="userSpaceOnUse">
<stop stop-color="#45CDFF"/>
<stop offset="1" stop-color="#E481FF"/>
</linearGradient>
</defs>
</svg>
